<svg width="24" height="25" viewBox="0 0 24 25" fill="none" xmlns="http://www.w3.org/2000/svg">
<path d="M1.00195 12.4147C1.00312 17.3643 4.58036 21.5788 9.43895 22.3545V15.3225H6.90195V12.4147H9.44195V10.2011C9.32841 9.15225 9.68447 8.10691 10.4136 7.34861C11.1427 6.59031 12.1693 6.19765 13.215 6.27712C13.9655 6.28932 14.7141 6.35657 15.455 6.47835V8.95249H14.191C13.7558 8.89514 13.3183 9.03975 13.0017 9.34556C12.6851 9.65138 12.5237 10.0853 12.563 10.5251V12.4147H15.334L14.891 15.3235H12.563V22.3545C17.8174 21.519 21.502 16.6906 20.9475 11.3673C20.3929 6.04406 15.7932 2.08943 10.4808 2.36838C5.16831 2.64734 1.0028 7.06223 1.00195 12.4147Z" fill="white"/>
</svg>
