<svg width="382" height="215" viewBox="0 0 382 215" fill="none" xmlns="http://www.w3.org/2000/svg">
<g clip-path="url(#clip0_2_1486)">
<path d="M29.1564 59.8099C28.7892 59.8107 28.4331 59.6827 28.1503 59.4479C27.8312 59.1838 27.6291 58.8041 27.5879 58.3916C27.5467 57.979 27.6699 57.5669 27.9303 57.2445C28.7761 56.2089 29.6897 55.231 30.6653 54.3171C30.9599 54.0238 31.3581 53.8594 31.7734 53.8594C32.1888 53.8594 32.587 54.0238 32.8816 54.3171C33.0288 54.4633 33.1458 54.6373 33.2257 54.8291C33.3055 55.021 33.3465 55.2267 33.3465 55.4345C33.3465 55.6424 33.3055 55.8481 33.2257 56.0397C33.1458 56.2315 33.0288 56.4057 32.8816 56.552C32.0122 57.3724 31.1934 58.245 30.4296 59.1647C30.2831 59.3651 30.0915 59.5281 29.8704 59.6403C29.649 59.7524 29.4045 59.8107 29.1564 59.8099Z" fill="#183154"/>
<g opacity="0.3">
<path opacity="0.3" d="M85.7586 89.7936V204.785C85.7608 205.933 85.5358 207.07 85.0966 208.13C84.6577 209.19 84.0133 210.152 83.2007 210.961C82.3881 211.771 81.4237 212.411 80.3625 212.845C79.3016 213.279 78.1654 213.498 77.0194 213.489H62.0398C64.9579 213.489 67.7565 212.329 69.82 210.262C71.8834 208.196 73.0425 205.394 73.0425 202.472C73.0425 199.55 71.8834 196.747 69.82 194.681C67.7565 192.615 64.9579 191.454 62.0398 191.454H11.0028C8.08465 191.454 5.28604 190.293 3.22262 188.227C1.15922 186.161 0 183.359 0 180.437C0 177.515 1.15922 174.712 3.22262 172.646C5.28604 170.58 8.08465 169.419 11.0028 169.419H38.8868C41.8051 169.419 44.6037 168.258 46.6669 166.192C48.7304 164.126 49.8897 161.323 49.8897 158.402C49.8897 155.48 48.7304 152.677 46.6669 150.611C44.6037 148.545 41.8051 147.384 38.8868 147.384H11.0028C8.08465 147.384 5.28604 146.223 3.22262 144.157C1.15922 142.091 4.63731e-07 139.288 4.63731e-07 136.366C4.63731e-07 133.444 1.15922 130.642 3.22262 128.576C5.28604 126.51 8.08465 125.349 11.0028 125.349H46.9188C49.8371 125.349 52.6357 124.188 54.6989 122.122C56.7624 120.056 57.9217 117.253 57.9217 114.331C57.9217 111.409 56.7624 108.607 54.6989 106.541C52.6357 104.474 49.8371 103.314 46.9188 103.314H26.1395C23.2213 103.314 20.4227 102.153 18.3593 100.087C16.2959 98.0204 15.1367 95.2182 15.1367 92.2961C15.1367 89.3741 16.2959 86.5717 18.3593 84.5055C20.4227 82.4392 23.2213 81.2786 26.1395 81.2786H77.0194C79.3016 81.2616 81.4987 82.1457 83.1347 83.7395C84.7704 85.3335 85.7131 87.5085 85.7586 89.7936Z" fill="#BDDFE9"/>
<path opacity="0.3" d="M296.242 42.4966V157.488C296.242 159.793 297.155 162.003 298.783 163.632C300.41 165.261 302.617 166.177 304.919 166.177H319.946C317.027 166.177 314.229 165.016 312.166 162.95C310.102 160.884 308.941 158.081 308.941 155.159C308.941 152.237 310.102 149.435 312.166 147.368C314.229 145.302 317.027 144.142 319.946 144.142H370.95C373.869 144.142 376.667 142.981 378.731 140.915C380.795 138.848 381.953 136.046 381.953 133.124C381.953 130.202 380.795 127.399 378.731 125.333C376.667 123.267 373.869 122.106 370.95 122.106H343.114C340.195 122.106 337.397 120.946 335.333 118.879C333.27 116.813 332.112 114.011 332.112 111.089C332.112 108.167 333.27 105.364 335.333 103.298C337.397 101.232 340.195 100.071 343.114 100.071H370.95C373.869 100.071 376.667 98.9104 378.731 96.8444C380.795 94.7781 381.953 91.9758 381.953 89.0538C381.953 86.1316 380.795 83.3292 378.731 81.2632C376.667 79.197 373.869 78.0361 370.95 78.0361H335.067C332.147 78.0361 329.35 76.8754 327.286 74.8092C325.222 72.7429 324.064 69.9405 324.064 67.0186C324.064 64.0966 325.222 61.2942 327.286 59.228C329.35 57.1617 332.147 56.0011 335.067 56.0011H355.861C358.78 56.0011 361.578 54.8402 363.641 52.7739C365.705 50.7079 366.863 47.9055 366.863 44.9833C366.863 42.0614 365.705 39.259 363.641 37.1927C361.578 35.1267 358.78 33.9658 355.861 33.9658H304.933C302.657 33.9613 300.47 34.8533 298.844 36.4492C297.217 38.0451 296.283 40.2171 296.242 42.4966Z" fill="#BDDFE9"/>
</g>
<path d="M304.998 118.346H83.5586V188.402H304.998V118.346Z" fill="#8BBBC6"/>
<path d="M310.64 149.604H73.1843C66.2308 149.604 60.5938 155.248 60.5938 162.211V200.442C60.5938 207.404 66.2308 213.049 73.1843 213.049H310.64C317.594 213.049 323.229 207.404 323.229 200.442V162.211C323.229 155.248 317.594 149.604 310.64 149.604Z" fill="#EBEDED"/>
<path d="M306.614 109.594H85.1758V143.575H306.614V109.594Z" fill="#6798A0"/>
<path d="M29.8633 87.2121C29.8633 81.3951 31.5829 75.7083 34.8052 70.8683C38.0275 66.0283 42.6084 62.2518 47.9707 60.0145C47.5468 57.7676 47.3361 55.4859 47.3421 53.1991C47.4648 44.2252 50.7746 35.588 56.6783 28.8352C62.5821 22.0823 70.6941 17.655 79.5612 16.3462C88.4284 15.0375 97.4711 16.9329 105.07 21.6929C112.668 26.4527 118.326 33.7663 121.029 42.3234C123.958 41.6135 126.96 41.2541 129.973 41.2531C145.88 41.2531 139.561 62.3754 145.062 76.3518C146.76 80.633 167.618 74.0696 167.618 78.9488C167.618 88.9674 163.643 98.5753 156.569 105.66C149.494 112.744 139.899 116.723 129.894 116.723L63.4845 118.345V95.2234" fill="#BDDFE9"/>
<path d="M78.7468 28.7554L71.5479 24.9937L63.4688 25.7177L67.2254 18.509L66.5024 10.4189L73.7012 14.1807L81.7804 13.4566L78.0238 20.6653L78.7468 28.7554Z" fill="#EEF0F1"/>
<path d="M62.1978 58.2203C63.6996 58.2203 64.9171 57.0012 64.9171 55.4973C64.9171 53.9935 63.6996 52.7744 62.1978 52.7744C60.696 52.7744 59.4785 53.9935 59.4785 55.4973C59.4785 57.0012 60.696 58.2203 62.1978 58.2203Z" fill="#EEF0F1"/>
<path d="M250.485 91.8399C256.188 91.8232 261.707 89.8312 266.108 86.2022C270.51 82.573 273.522 77.5304 274.632 71.9303C275.745 66.3303 274.885 60.5177 272.202 55.4796C269.521 50.4415 265.179 46.4885 259.917 44.2913C260.265 42.4016 260.439 40.4838 260.434 38.5621C260.427 30.972 257.699 23.6369 252.742 17.8941C247.785 12.1513 240.932 8.38322 233.434 7.2767C225.935 6.17018 218.288 7.7989 211.888 11.866C205.488 15.933 200.761 22.1676 198.568 29.4333C196.112 28.8456 193.596 28.5447 191.07 28.5361C186.919 28.5361 182.809 29.3548 178.974 30.9455C175.139 32.5362 171.654 34.8675 168.719 37.8067C165.784 40.7458 163.456 44.2352 161.867 48.0754C160.279 51.9155 159.461 56.0315 159.461 60.1881C159.461 64.3447 160.279 68.4605 161.867 72.3007C163.456 76.1409 165.784 79.6302 168.719 82.5694C171.654 85.5085 175.139 87.8399 178.974 89.4305C182.809 91.0212 186.919 91.8399 191.07 91.8399H250.485Z" fill="white"/>
<path d="M272.288 65.4125C272.283 71.8258 269.736 77.9749 265.206 82.5083C260.676 87.0416 254.532 89.5882 248.129 89.5882H189.971C184.77 89.5942 179.651 88.2827 175.092 85.7757C170.533 83.2688 166.681 79.6479 163.895 75.2498C168.849 78.4247 174.611 80.1075 180.493 80.0974H238.649C245.055 80.0974 251.198 77.5509 255.728 73.0175C260.259 68.4841 262.806 62.335 262.808 55.9218C262.818 51.8415 261.784 47.8267 259.808 44.2588C263.59 46.341 266.745 49.4033 268.94 53.1246C271.135 56.8462 272.291 61.0901 272.288 65.4125Z" fill="#BDDFE9"/>
<path d="M248.99 91.3831H190.834C186.32 91.3478 181.864 90.3716 177.748 88.517C173.632 86.6622 169.947 83.9696 166.928 80.6104C163.908 77.2513 161.62 73.2992 160.21 69.0062C158.799 64.7128 158.297 60.1726 158.736 55.6745C159.174 51.1764 160.543 46.8189 162.755 42.8797C164.968 38.9403 167.975 35.5055 171.586 32.7943C175.197 30.0828 179.332 28.154 183.729 27.131C188.125 26.1078 192.686 26.0126 197.121 26.8516C199.627 19.5381 204.652 13.3573 211.296 9.41719C217.939 5.47703 225.767 4.03507 233.376 5.34982C240.985 6.66454 247.879 10.65 252.819 16.5918C257.759 22.5336 260.426 30.0432 260.34 37.7746C260.345 39.3545 260.235 40.9328 260.009 42.4965C265.292 44.9973 269.565 49.224 272.127 54.4814C274.688 59.7387 275.387 65.7132 274.107 71.4208C272.825 77.1284 269.641 82.2293 265.08 85.8833C260.517 89.5376 254.85 91.5272 249.007 91.5246L248.99 91.3831ZM190.834 29.4486C183.166 29.6263 175.872 32.801 170.512 38.2941C165.152 43.787 162.151 51.1621 162.151 58.842C162.151 66.5219 165.152 73.8968 170.512 79.3896C175.872 84.8828 183.166 88.0574 190.834 88.2352H248.99C254.206 88.2249 259.258 86.4073 263.288 83.0909C267.318 79.7743 270.077 75.1634 271.097 70.0411C272.117 64.9188 271.336 59.6006 268.886 54.9899C266.434 50.3792 262.466 46.7602 257.652 44.7472L256.473 44.2437L256.708 42.9845C257.04 41.2416 257.204 39.4705 257.197 37.6961C257.19 30.65 254.654 23.8409 250.055 18.5095C245.453 13.1782 239.093 9.67958 232.133 8.65135C225.171 7.62314 218.073 9.13375 212.131 12.9079C206.189 16.682 201.799 22.4684 199.762 29.2126L199.322 30.6448L197.875 30.2828C195.59 29.7294 193.247 29.4495 190.897 29.4486H190.834Z" fill="#183154"/>
<path d="M311.095 76.3838H73.6391C66.6857 76.3838 61.0488 82.0282 61.0488 88.991V127.222C61.0488 134.185 66.6857 139.829 73.6391 139.829H311.095C318.048 139.829 323.684 134.185 323.684 127.222V88.991C323.684 82.0282 318.048 76.3838 311.095 76.3838Z" fill="white"/>
<path d="M312.242 75.3135H74.7875C67.8341 75.3135 62.1973 80.9581 62.1973 87.9209V126.152C62.1973 133.115 67.8341 138.759 74.7875 138.759H312.242C319.195 138.759 324.834 133.115 324.834 126.152V87.9209C324.834 80.9581 319.195 75.3135 312.242 75.3135Z" fill="#EBEDED"/>
<path d="M172.147 75.6904C172.147 85.7088 168.173 95.317 161.098 102.401C154.023 109.485 144.428 113.465 134.423 113.465H63.6911H62.4336V105.705H122.949C131.713 105.708 140.203 102.646 146.953 97.0482C153.703 91.4503 158.288 83.6681 159.918 75.0449H172.131C172.147 75.2497 172.147 75.5487 172.147 75.6904Z" fill="#C5D1D1"/>
<path d="M83.5585 117.479C89.7306 117.479 94.7342 112.469 94.7342 106.288C94.7342 100.108 89.7306 95.0977 83.5585 95.0977C77.3865 95.0977 72.3828 100.108 72.3828 106.288C72.3828 112.469 77.3865 117.479 83.5585 117.479Z" fill="white"/>
<path d="M117.07 117.479C123.242 117.479 128.246 112.469 128.246 106.288C128.246 100.108 123.242 95.0977 117.07 95.0977C110.898 95.0977 105.895 100.108 105.895 106.288C105.895 112.469 110.898 117.479 117.07 117.479Z" fill="white"/>
<path d="M323.37 87.9366V126.152C323.37 129.491 322.045 132.694 319.688 135.055C317.329 137.417 314.131 138.743 310.797 138.743H241.087C239.406 138.743 237.795 138.075 236.607 136.885C235.419 135.696 234.752 134.083 234.752 132.4C234.752 130.718 235.419 129.105 236.607 127.915C237.795 126.726 239.406 126.057 241.087 126.057H305.185C306.865 126.057 308.476 125.389 309.665 124.2C310.852 123.01 311.519 121.397 311.519 119.714C311.519 118.032 310.852 116.419 309.665 115.229C308.476 114.04 306.865 113.372 305.185 113.372H264.319C263.487 113.372 262.662 113.207 261.893 112.889C261.125 112.57 260.427 112.103 259.839 111.514C259.25 110.925 258.783 110.225 258.466 109.456C258.147 108.686 257.982 107.861 257.982 107.028C257.982 106.195 258.147 105.371 258.466 104.601C258.783 103.832 259.25 103.132 259.839 102.543C260.427 101.954 261.125 101.487 261.893 101.168C262.662 100.849 263.487 100.686 264.319 100.686H283.95C285.633 100.686 287.246 100.016 288.435 98.8255C289.624 97.6343 290.291 96.019 290.291 94.3346C290.291 92.6504 289.624 91.0349 288.435 89.8439C287.246 88.653 285.633 87.9839 283.95 87.9839H254.808C253.128 87.9839 251.517 87.3155 250.33 86.1259C249.141 84.9364 248.474 83.3231 248.474 81.6408C248.474 79.9585 249.141 78.3451 250.33 77.1556C251.517 75.966 253.128 75.2979 254.808 75.2979H310.764C312.423 75.2936 314.064 75.6179 315.597 76.2517C317.129 76.8857 318.523 77.8166 319.693 78.9913C320.866 80.1661 321.793 81.5611 322.424 83.0961C323.056 84.6314 323.377 86.2765 323.37 87.9366Z" fill="#C5D1D1"/>
<path d="M202.136 77.2651H191.919C191.502 77.2651 191.103 77.0993 190.808 76.8041C190.513 76.5089 190.348 76.1085 190.348 75.6912C190.348 75.2736 190.513 74.8734 190.808 74.5782C191.103 74.283 191.502 74.1172 191.919 74.1172H202.136C202.553 74.1172 202.953 74.283 203.248 74.5782C203.543 74.8734 203.708 75.2736 203.708 75.6912C203.708 76.1085 203.543 76.5089 203.248 76.8041C202.953 77.0993 202.553 77.2651 202.136 77.2651Z" fill="#183154"/>
<path d="M311.315 140.726H73.8769C70.125 140.726 66.5266 139.234 63.8738 136.577C61.2208 133.921 59.7305 130.317 59.7305 126.56V88.3139C59.7305 84.557 61.2208 80.954 63.8738 78.2974C66.5266 75.6408 70.125 74.1484 73.8769 74.1484H180.855C181.272 74.1484 181.672 74.3143 181.966 74.6095C182.261 74.9046 182.427 75.3048 182.427 75.7224C182.427 76.1398 182.261 76.5402 181.966 76.8353C181.672 77.1305 181.272 77.2964 180.855 77.2964H73.8769C70.9586 77.2964 68.16 78.457 66.0967 80.5233C64.0333 82.5895 62.8739 85.3919 62.8739 88.3139V126.529C62.8739 129.451 64.0333 132.254 66.0967 134.32C68.16 136.386 70.9586 137.547 73.8769 137.547H311.315C314.235 137.547 317.032 136.386 319.096 134.32C321.16 132.254 322.318 129.451 322.318 126.529V88.3139C322.318 85.3919 321.16 82.5895 319.096 80.5233C317.032 78.457 314.235 77.2964 311.315 77.2964H221.628C221.211 77.2964 220.811 77.1305 220.517 76.8353C220.222 76.5402 220.056 76.1398 220.056 75.7224C220.056 75.3048 220.222 74.9046 220.517 74.6095C220.811 74.3143 221.211 74.1484 221.628 74.1484H311.332C315.083 74.1484 318.681 75.6408 321.336 78.2974C323.988 80.954 325.478 84.557 325.478 88.3139V126.529C325.483 128.393 325.118 130.24 324.41 131.963C323.7 133.686 322.656 135.253 321.341 136.571C320.025 137.89 318.462 138.936 316.742 139.649C315.021 140.362 313.179 140.728 311.315 140.726Z" fill="#183154"/>
<path d="M211.52 77.2651H207.841C207.425 77.2651 207.025 77.0993 206.73 76.8041C206.435 76.5089 206.27 76.1085 206.27 75.6912C206.27 75.2736 206.435 74.8734 206.73 74.5782C207.025 74.283 207.425 74.1172 207.841 74.1172H211.52C211.936 74.1172 212.336 74.283 212.631 74.5782C212.926 74.8734 213.091 75.2736 213.091 75.6912C213.091 76.1085 212.926 76.5089 212.631 76.8041C212.336 77.0993 211.936 77.2651 211.52 77.2651Z" fill="#183154"/>
<path d="M322.316 163.8V202.015C322.316 205.355 320.991 208.558 318.634 210.919C316.275 213.28 313.077 214.607 309.743 214.607H240.032C238.352 214.607 236.74 213.939 235.552 212.749C234.365 211.56 233.697 209.946 233.697 208.264C233.697 206.582 234.365 204.968 235.552 203.779C236.74 202.589 238.352 201.921 240.032 201.921H304.131C305.811 201.921 307.422 201.253 308.609 200.063C309.798 198.874 310.465 197.26 310.465 195.578C310.465 193.896 309.798 192.282 308.609 191.093C307.422 189.903 305.811 189.235 304.131 189.235H263.262C261.582 189.235 259.971 188.567 258.784 187.377C257.595 186.188 256.928 184.574 256.928 182.892C256.928 181.21 257.595 179.596 258.784 178.407C259.971 177.217 261.582 176.549 263.262 176.549H282.927C284.609 176.549 286.223 175.88 287.412 174.689C288.601 173.498 289.268 171.883 289.268 170.198C289.268 168.514 288.601 166.898 287.412 165.708C286.223 164.517 284.609 163.847 282.927 163.847H253.754C252.074 163.847 250.463 163.179 249.274 161.99C248.087 160.8 247.42 159.187 247.42 157.504C247.42 155.822 248.087 154.209 249.274 153.019C250.463 151.83 252.074 151.161 253.754 151.161H309.648C311.311 151.149 312.96 151.467 314.5 152.097C316.039 152.727 317.438 153.657 318.618 154.832C319.795 156.008 320.729 157.406 321.365 158.945C321.999 160.485 322.323 162.135 322.316 163.8Z" fill="#C5D1D1"/>
<path d="M292.815 76.0536C292.398 76.0536 291.998 75.8877 291.702 75.5926C291.409 75.2974 291.242 74.897 291.242 74.4796V39.7427C291.242 39.3253 291.409 38.9249 291.702 38.6297C291.998 38.3346 292.398 38.1689 292.815 38.1689C293.232 38.1689 293.632 38.3346 293.925 38.6297C294.221 38.9249 294.385 39.3253 294.385 39.7427V74.4796C294.385 74.897 294.221 75.2974 293.925 75.5926C293.632 75.8877 293.232 76.0536 292.815 76.0536Z" fill="#183154"/>
<path d="M305.75 76.4461C305.333 76.4461 304.935 76.2803 304.64 75.9851C304.344 75.6899 304.18 75.2897 304.18 74.8721V10.7185C304.18 10.301 304.344 9.90071 304.64 9.60553C304.935 9.31035 305.333 9.14453 305.75 9.14453C306.167 9.14453 306.567 9.31035 306.863 9.60553C307.156 9.90071 307.323 10.301 307.323 10.7185V74.8721C307.323 75.2897 307.156 75.6899 306.863 75.9851C306.567 76.2803 306.167 76.4461 305.75 76.4461Z" fill="#183154"/>
<path d="M304.996 14.0724C308.669 14.0724 311.645 11.0916 311.645 7.4146C311.645 3.73762 308.669 0.756836 304.996 0.756836C301.324 0.756836 298.348 3.73762 298.348 7.4146C298.348 11.0916 301.324 14.0724 304.996 14.0724Z" fill="#FFADAD"/>
<path d="M305.547 16.4478C303.919 16.4509 302.327 15.9703 300.974 15.067C299.618 14.1637 298.562 12.8783 297.938 11.3735C297.313 9.86868 297.149 8.21227 297.466 6.61402C297.783 5.01574 298.567 3.54756 299.718 2.39539C300.869 1.24322 302.334 0.458901 303.931 0.141783C305.525 -0.175337 307.181 -0.0109961 308.683 0.613992C310.186 1.23898 311.469 2.29649 312.372 3.6526C313.275 5.0087 313.754 6.6024 313.752 8.23179C313.747 10.4095 312.882 12.4969 311.342 14.0368C309.805 15.5767 307.72 16.4436 305.547 16.4478ZM305.547 3.14799C304.541 3.14486 303.557 3.44037 302.72 3.9971C301.884 4.55381 301.231 5.34671 300.845 6.27536C300.457 7.20404 300.354 8.22673 300.55 9.21392C300.743 10.2011 301.224 11.1084 301.934 11.821C302.644 12.5336 303.547 13.0193 304.534 13.2168C305.518 13.4142 306.54 13.3144 307.47 12.9301C308.397 12.5458 309.193 11.8942 309.75 11.0579C310.308 10.2215 310.606 9.23795 310.606 8.23179C310.606 6.88622 310.074 5.5955 309.126 4.64256C308.178 3.68959 306.888 3.15214 305.547 3.14799Z" fill="#183154"/>
<path d="M227.302 168.774H192.219C186.046 168.774 181.043 173.785 181.043 179.965V179.981C181.043 186.161 186.046 191.172 192.219 191.172H227.302C233.474 191.172 238.478 186.161 238.478 179.981V179.965C238.478 173.785 233.474 168.774 227.302 168.774Z" fill="#7DADB5"/>
<path d="M227.286 192.73H192.218C188.837 192.73 185.595 191.385 183.204 188.991C180.814 186.597 179.471 183.35 179.471 179.965C179.471 176.58 180.814 173.333 183.204 170.939C185.595 168.545 188.837 167.2 192.218 167.2H227.286C230.666 167.2 233.909 168.545 236.299 170.939C238.69 173.333 240.034 176.58 240.034 179.965C240.034 183.35 238.69 186.597 236.299 188.991C233.909 191.385 230.666 192.73 227.286 192.73ZM192.218 170.348C189.671 170.348 187.228 171.361 185.427 173.165C183.626 174.968 182.614 177.414 182.614 179.965C182.614 182.515 183.626 184.961 185.427 186.765C187.228 188.568 189.671 189.582 192.218 189.582H227.286C229.833 189.582 232.275 188.568 234.076 186.765C235.878 184.961 236.889 182.515 236.889 179.965C236.889 177.414 235.878 174.968 234.076 173.165C232.275 171.361 229.833 170.348 227.286 170.348H192.218Z" fill="#183154"/>
<path d="M83.8082 119.069C81.2832 119.072 78.8141 118.325 76.7132 116.923C74.6121 115.52 72.9738 113.525 72.0053 111.19C71.0369 108.855 70.7819 106.285 71.2728 103.805C71.7634 101.324 72.9776 99.0458 74.762 97.2568C76.5464 95.4679 78.8206 94.249 81.2968 93.7545C83.773 93.2601 86.34 93.5123 88.6732 94.4792C91.0062 95.4461 93.0006 97.0841 94.4037 99.1863C95.8068 101.288 96.5558 103.76 96.5558 106.288C96.5558 109.675 95.2132 112.923 92.823 115.32C90.4328 117.716 87.1905 119.064 83.8082 119.069ZM83.8082 96.6715C81.9044 96.6684 80.0423 97.2311 78.4581 98.2884C76.8736 99.3455 75.6383 100.85 74.9083 102.611C74.1782 104.371 73.9863 106.309 74.3571 108.179C74.7277 110.049 75.6442 111.767 76.9904 113.115C78.3368 114.463 80.0523 115.381 81.9197 115.752C83.7873 116.123 85.7228 115.931 87.481 115.2C89.2394 114.469 90.7417 113.232 91.7974 111.646C92.8533 110.059 93.4152 108.195 93.4121 106.288C93.408 103.739 92.3948 101.295 90.5946 99.4927C88.7945 97.6902 86.354 96.6755 83.8082 96.6715Z" fill="#183154"/>
<path d="M117.32 119.069C114.795 119.072 112.326 118.325 110.225 116.923C108.124 115.52 106.486 113.525 105.517 111.19C104.549 108.855 104.294 106.285 104.785 103.805C105.275 101.324 106.489 99.0458 108.274 97.2568C110.058 95.4679 112.332 94.249 114.808 93.7545C117.285 93.2601 119.852 93.5123 122.185 94.4792C124.518 95.4461 126.512 97.0841 127.915 99.1863C129.319 101.288 130.068 103.76 130.068 106.288C130.068 109.675 128.725 112.923 126.335 115.32C123.945 117.716 120.702 119.064 117.32 119.069ZM117.32 96.6715C115.416 96.6684 113.554 97.2311 111.97 98.2884C110.385 99.3455 109.15 100.85 108.42 102.611C107.69 104.371 107.498 106.309 107.869 108.179C108.239 110.049 109.156 111.767 110.502 113.115C111.849 114.463 113.564 115.381 115.431 115.752C117.299 116.123 119.234 115.931 120.993 115.2C122.751 114.469 124.253 113.232 125.309 111.646C126.365 110.059 126.927 108.195 126.924 106.288C126.92 103.739 125.907 101.295 124.106 99.4927C122.306 97.6902 119.866 96.6755 117.32 96.6715Z" fill="#183154"/>
<path d="M150.832 117.479C157.004 117.479 162.008 112.469 162.008 106.288C162.008 100.108 157.004 95.0977 150.832 95.0977C144.66 95.0977 139.656 100.108 139.656 106.288C139.656 112.469 144.66 117.479 150.832 117.479Z" fill="#EEF0F1"/>
<path d="M152.2 119.194C149.679 119.179 147.218 118.416 145.129 117.001C143.04 115.587 141.417 113.584 140.463 111.247C139.51 108.909 139.269 106.341 139.772 103.867C140.274 101.393 141.497 99.1228 143.287 97.3438C145.077 95.5651 147.353 94.3567 149.827 93.8719C152.302 93.3867 154.865 93.6466 157.192 94.6188C159.519 95.5907 161.507 97.2312 162.904 99.3332C164.301 101.435 165.045 103.905 165.042 106.43C165.04 108.113 164.706 109.78 164.058 111.334C163.411 112.888 162.464 114.299 161.27 115.484C160.077 116.671 158.662 117.609 157.105 118.246C155.548 118.882 153.882 119.205 152.2 119.194ZM152.2 96.7971C150.301 96.8127 148.449 97.3908 146.877 98.4587C145.306 99.5265 144.085 101.036 143.369 102.798C142.653 104.559 142.474 106.493 142.854 108.357C143.234 110.22 144.156 111.929 145.504 113.268C146.853 114.608 148.567 115.517 150.431 115.883C152.295 116.248 154.225 116.053 155.978 115.321C157.731 114.59 159.229 113.355 160.282 111.773C161.336 110.191 161.898 108.332 161.898 106.43C161.898 105.158 161.647 103.899 161.159 102.725C160.67 101.551 159.955 100.486 159.053 99.5905C158.152 98.6949 157.082 97.9872 155.906 97.5078C154.729 97.0284 153.47 96.7869 152.2 96.7971Z" fill="#183154"/>
<path d="M296.838 95.2236H198.883C192.71 95.2236 187.707 100.234 187.707 106.414V106.43C187.707 112.61 192.71 117.621 198.883 117.621H296.838C303.01 117.621 308.014 112.61 308.014 106.43V106.414C308.014 100.234 303.01 95.2236 296.838 95.2236Z" fill="#EEF0F1"/>
<path d="M295.503 119.131H197.578C195.866 119.191 194.158 118.905 192.558 118.291C190.958 117.676 189.498 116.745 188.265 115.553C187.032 114.361 186.052 112.932 185.382 111.353C184.712 109.773 184.367 108.075 184.367 106.358C184.367 104.642 184.712 102.944 185.382 101.364C186.052 99.7845 187.032 98.3561 188.265 97.1642C189.498 95.9723 190.958 95.0412 192.558 94.4262C194.158 93.8115 195.866 93.5257 197.578 93.586H295.503C297.216 93.5257 298.922 93.8115 300.524 94.4262C302.123 95.0412 303.584 95.9723 304.816 97.1642C306.048 98.3561 307.029 99.7845 307.699 101.364C308.369 102.944 308.714 104.642 308.714 106.358C308.714 108.075 308.369 109.773 307.699 111.353C307.029 112.932 306.048 114.361 304.816 115.553C303.584 116.745 302.123 117.676 300.524 118.291C298.922 118.905 297.216 119.191 295.503 119.131ZM197.578 96.7337C196.283 96.6815 194.991 96.8914 193.779 97.3515C192.567 97.8116 191.461 98.5122 190.526 99.4111C189.592 100.31 188.848 101.389 188.34 102.583C187.832 103.776 187.57 105.061 187.57 106.358C187.57 107.656 187.832 108.941 188.34 110.134C188.848 111.328 189.592 112.407 190.526 113.306C191.461 114.205 192.567 114.905 193.779 115.365C194.991 115.826 196.283 116.036 197.578 115.983H295.503C296.797 116.036 298.091 115.826 299.301 115.365C300.514 114.905 301.62 114.205 302.554 113.306C303.488 112.407 304.234 111.328 304.742 110.134C305.249 108.941 305.511 107.656 305.511 106.358C305.511 105.061 305.249 103.776 304.742 102.583C304.234 101.389 303.488 100.31 302.554 99.4111C301.62 98.5122 300.514 97.8116 299.301 97.3515C298.091 96.8914 296.797 96.6815 295.503 96.7337H197.578Z" fill="#183154"/>
<path d="M83.8101 151.177C83.3931 151.177 82.9935 151.011 82.6987 150.716C82.4039 150.421 82.2383 150.021 82.2383 149.603V139.656C82.2383 139.238 82.4039 138.838 82.6987 138.543C82.9935 138.248 83.3931 138.082 83.8101 138.082C84.2269 138.082 84.6268 138.248 84.9216 138.543C85.2164 138.838 85.3817 139.238 85.3817 139.656V149.603C85.3817 150.021 85.2164 150.421 84.9216 150.716C84.6268 151.011 84.2269 151.177 83.8101 151.177Z" fill="#183154"/>
<path d="M304.934 151.177C304.517 151.177 304.119 151.011 303.823 150.716C303.528 150.421 303.363 150.021 303.363 149.603V139.656C303.363 139.238 303.528 138.838 303.823 138.543C304.119 138.248 304.517 138.082 304.934 138.082C305.351 138.082 305.751 138.248 306.047 138.543C306.34 138.838 306.506 139.238 306.506 139.656V149.603C306.506 150.021 306.34 150.421 306.047 150.716C305.751 151.011 305.351 151.177 304.934 151.177Z" fill="#183154"/>
<path d="M51.4446 106.824C44.6351 106.835 38.0329 104.479 32.7645 100.159C27.4963 95.839 23.8882 89.8221 22.5563 83.1351C21.2245 76.4482 22.2512 69.5057 25.4615 63.4924C28.6716 57.479 33.8664 52.7674 40.159 50.1619C39.7349 47.915 39.5244 45.6333 39.5302 43.3468C39.6896 34.3993 43.0163 25.7991 48.9172 19.0785C54.818 12.3579 62.9098 7.95321 71.7514 6.64932C80.5929 5.34541 89.6093 7.22693 97.1948 11.9587C104.78 16.6904 110.441 23.9651 113.17 32.4865C116.122 31.7929 119.145 31.4547 122.177 31.4793C131.764 32.068 140.766 36.2964 147.347 43.3026C153.927 50.3089 157.591 59.5646 157.591 69.1828C157.591 78.801 153.927 88.057 147.347 95.0632C140.766 102.069 131.764 106.298 122.177 106.887L51.4446 106.824Z" fill="#FFADAD"/>
<path opacity="0.7" d="M142.391 36.4365C145.925 42.1487 147.873 48.7013 148.035 55.4188C148.198 62.1363 146.567 68.7755 143.313 74.6519C140.058 80.5282 135.297 85.4288 129.521 88.8483C123.745 92.268 117.162 94.0828 110.451 94.1057H39.7191C34.8655 94.1071 30.0869 92.9066 25.8086 90.6115C28.3265 95.3009 32.066 99.2201 36.6297 101.953C41.1932 104.685 46.4106 106.129 51.7279 106.131H122.46C130.612 106.078 138.528 103.383 145.023 98.4479C151.517 93.5129 156.24 86.6041 158.485 78.756C160.729 70.9079 160.374 62.5429 157.473 54.9136C154.571 47.2846 149.28 40.8019 142.391 36.4365Z" fill="#99394C"/>
<path d="M68.5941 15.5978C69.2194 15.5978 69.8192 15.3491 70.2613 14.9063C70.7036 14.4635 70.9519 13.863 70.9519 13.2369C70.9519 12.6107 70.7036 12.0102 70.2613 11.5675C69.8192 11.1247 69.2194 10.876 68.5941 10.876C67.9688 10.876 67.3692 11.1247 66.9269 11.5675C66.4849 12.0102 66.2363 12.6107 66.2363 13.2369C66.2363 13.863 66.4849 14.4635 66.9269 14.9063C67.3692 15.3491 67.9688 15.5978 68.5941 15.5978Z" fill="#FDFEFF"/>
<path d="M54.1332 26.8361C56.3699 23.9325 59.0739 21.4219 62.1337 19.4072C64.0199 18.148 62.2438 15.0788 60.3576 16.3537C56.7938 18.7042 53.653 21.6417 51.0681 25.0419C49.7007 26.8676 52.7658 28.6303 54.1332 26.8361Z" fill="#FDFEFF"/>
<path d="M234.973 164.886C237.734 164.886 239.972 162.645 239.972 159.881C239.972 157.117 237.734 154.876 234.973 154.876C232.213 154.876 229.975 157.117 229.975 159.881C229.975 162.645 232.213 164.886 234.973 164.886Z" fill="#C5D1D1"/>
<path opacity="0.5" d="M224.347 163.989C225.727 163.989 226.846 162.868 226.846 161.486C226.846 160.104 225.727 158.983 224.347 158.983C222.967 158.983 221.848 160.104 221.848 161.486C221.848 162.868 222.967 163.989 224.347 163.989Z" fill="#C5D1D1"/>
<path d="M236.026 89.0386C238.785 89.0386 241.023 86.7977 241.023 84.0334C241.023 81.269 238.785 79.0283 236.026 79.0283C233.265 79.0283 231.027 81.269 231.027 84.0334C231.027 86.7977 233.265 89.0386 236.026 89.0386Z" fill="#C5D1D1"/>
<path opacity="0.5" d="M225.4 88.1409C226.78 88.1409 227.899 87.0205 227.899 85.6384C227.899 84.2563 226.78 83.1357 225.4 83.1357C224.019 83.1357 222.9 84.2563 222.9 85.6384C222.9 87.0205 224.019 88.1409 225.4 88.1409Z" fill="#C5D1D1"/>
<path d="M75.5573 164.776C77.7883 164.776 79.5968 162.965 79.5968 160.731C79.5968 158.497 77.7883 156.686 75.5573 156.686C73.3263 156.686 71.5176 158.497 71.5176 160.731C71.5176 162.965 73.3263 164.776 75.5573 164.776Z" fill="white"/>
<path opacity="0.5" d="M70.4183 169.766C71.5381 169.766 72.4461 168.857 72.4461 167.736C72.4461 166.614 71.5381 165.705 70.4183 165.705C69.2986 165.705 68.3906 166.614 68.3906 167.736C68.3906 168.857 69.2986 169.766 70.4183 169.766Z" fill="white"/>
<path d="M94.8132 164.241C97.0441 164.241 98.8526 162.43 98.8526 160.196C98.8526 157.962 97.0441 156.151 94.8132 156.151C92.5819 156.151 90.7734 157.962 90.7734 160.196C90.7734 162.43 92.5819 164.241 94.8132 164.241Z" fill="white"/>
<path opacity="0.5" d="M86.1351 161.974C87.2549 161.974 88.1629 161.065 88.1629 159.944C88.1629 158.822 87.2549 157.913 86.1351 157.913C85.0154 157.913 84.1074 158.822 84.1074 159.944C84.1074 161.065 85.0154 161.974 86.1351 161.974Z" fill="white"/>
<path d="M180.869 96.6089C184.636 96.6089 187.69 93.5507 187.69 89.7781C187.69 86.0055 184.636 82.9473 180.869 82.9473C177.101 82.9473 174.047 86.0055 174.047 89.7781C174.047 93.5507 177.101 96.6089 180.869 96.6089Z" fill="white"/>
<path opacity="0.5" d="M177.977 106.289C179.861 106.289 181.388 104.76 181.388 102.873C181.388 100.987 179.861 99.458 177.977 99.458C176.093 99.458 174.566 100.987 174.566 102.873C174.566 104.76 176.093 106.289 177.977 106.289Z" fill="white"/>
<path d="M85.3805 191.156C91.5528 191.156 96.5562 186.146 96.5562 179.965C96.5562 173.785 91.5528 168.774 85.3805 168.774C79.2085 168.774 74.2051 173.785 74.2051 179.965C74.2051 186.146 79.2085 191.156 85.3805 191.156Z" fill="#FFADAD"/>
<path opacity="0.7" d="M96.1479 179.288C96.1215 181.715 95.3075 184.068 93.8288 185.991C92.3501 187.915 90.2869 189.304 87.9503 189.951C85.6138 190.598 83.1306 190.466 80.8753 189.576C78.62 188.686 76.7148 187.086 75.4473 185.017C77.1697 186.053 79.1431 186.598 81.153 186.591C84.1167 186.591 86.9595 185.412 89.0553 183.313C91.1512 181.214 92.3284 178.368 92.3284 175.4C92.3356 173.388 91.792 171.412 90.7568 169.687C92.408 170.683 93.7728 172.092 94.7179 173.775C95.6628 175.457 96.1556 177.357 96.1479 179.288Z" fill="#99394C"/>
<path d="M85.1773 192.87C82.653 192.87 80.1853 192.121 78.0864 190.716C75.9874 189.312 74.3517 187.316 73.3856 184.981C72.4195 182.646 72.1669 180.076 72.6593 177.597C73.1518 175.117 74.3674 172.84 76.1523 171.053C77.9372 169.265 80.2116 168.048 82.6873 167.555C85.163 167.062 87.7293 167.315 90.0616 168.283C92.3936 169.25 94.387 170.888 95.7894 172.99C97.1919 175.091 97.9404 177.562 97.9404 180.09C97.9404 183.48 96.5959 186.73 94.2021 189.127C91.8086 191.524 88.5622 192.87 85.1773 192.87ZM85.1773 170.473C83.274 170.473 81.4136 171.039 79.8312 172.098C78.2489 173.157 77.0161 174.662 76.2884 176.423C75.5608 178.184 75.3711 180.122 75.7436 181.991C76.1161 183.86 77.0338 185.576 78.3807 186.923C79.7276 188.269 81.4431 189.185 83.3102 189.555C85.1773 189.925 87.1119 189.732 88.8694 189.001C90.6268 188.269 92.1281 187.032 93.1834 185.446C94.2383 183.86 94.8 181.996 94.7969 180.09C94.7926 177.538 93.7772 175.092 91.9737 173.289C90.1703 171.486 87.7257 170.473 85.1773 170.473Z" fill="#183154"/>
<path d="M117.32 191.156C123.492 191.156 128.496 186.146 128.496 179.965C128.496 173.785 123.492 168.774 117.32 168.774C111.148 168.774 106.145 173.785 106.145 179.965C106.145 186.146 111.148 191.156 117.32 191.156Z" fill="#FFADAD"/>
<path d="M150.832 191.156C157.004 191.156 162.008 186.146 162.008 179.965C162.008 173.785 157.004 168.774 150.832 168.774C144.66 168.774 139.656 173.785 139.656 179.965C139.656 186.146 144.66 191.156 150.832 191.156Z" fill="#EEF0F1"/>
<path d="M152.199 192.87C149.674 192.87 147.207 192.121 145.108 190.716C143.009 189.312 141.373 187.316 140.407 184.981C139.441 182.646 139.188 180.076 139.681 177.597C140.173 175.117 141.389 172.84 143.174 171.053C144.959 169.265 147.233 168.048 149.709 167.555C152.185 167.062 154.751 167.315 157.083 168.283C159.415 169.25 161.408 170.888 162.811 172.99C164.213 175.091 164.962 177.562 164.962 180.09C164.962 183.48 163.617 186.73 161.224 189.127C158.83 191.524 155.584 192.87 152.199 192.87ZM152.199 170.473C150.295 170.473 148.435 171.039 146.853 172.098C145.271 173.157 144.038 174.662 143.31 176.423C142.582 178.184 142.393 180.122 142.765 181.991C143.138 183.86 144.055 185.576 145.402 186.923C146.749 188.269 148.465 189.185 150.332 189.555C152.199 189.925 154.133 189.732 155.891 189.001C157.648 188.269 159.15 187.032 160.205 185.446C161.26 183.86 161.821 181.996 161.818 180.09C161.814 177.538 160.799 175.092 158.995 173.289C157.192 171.486 154.747 170.473 152.199 170.473Z" fill="#183154"/>
<g opacity="0.4">
<path opacity="0.4" d="M55.3757 74.668C60.8967 74.668 65.3725 70.1862 65.3725 64.6577C65.3725 59.1291 60.8967 54.6475 55.3757 54.6475C49.8545 54.6475 45.3789 59.1291 45.3789 64.6577C45.3789 70.1862 49.8545 74.668 55.3757 74.668Z" fill="white"/>
<path opacity="0.4" d="M43.8695 84.4419C46.63 84.4419 48.8679 82.201 48.8679 79.4368C48.8679 76.6726 46.63 74.4316 43.8695 74.4316C41.109 74.4316 38.8711 76.6726 38.8711 79.4368C38.8711 82.201 41.109 84.4419 43.8695 84.4419Z" fill="white"/>
</g>
<path d="M122.602 107.925H51.8705C46.6593 107.92 41.5336 106.599 36.9679 104.084C32.4021 101.569 28.5437 97.941 25.7496 93.5365C22.9555 89.1317 21.3162 84.0925 20.9832 78.8852C20.6503 73.6778 21.6345 68.4703 23.8448 63.7448C24.0266 63.3749 24.3465 63.0914 24.7351 62.955C25.1236 62.8187 25.5501 62.8404 25.9228 63.0158C26.2955 63.191 26.5848 63.5057 26.7283 63.8923C26.8715 64.2788 26.8577 64.7062 26.6897 65.0828C24.9496 68.7788 24.0529 72.8166 24.0648 76.903C24.0731 84.2877 27.0042 91.3681 32.2162 96.593C37.4281 101.818 44.4955 104.761 51.8705 104.777H122.602C127.762 104.859 132.88 103.834 137.612 101.77C142.343 99.7068 146.578 96.6529 150.033 92.8137C153.487 88.9747 156.081 84.4394 157.64 79.5131C159.198 74.5867 159.685 69.3832 159.068 64.2526C158.451 59.1219 156.744 54.1831 154.062 49.7681C151.38 45.3531 147.785 41.5642 143.519 38.6564C139.253 35.7485 134.414 33.7887 129.329 32.9091C124.244 32.0296 119.029 32.2503 114.036 33.5567L112.59 33.903L112.15 32.4708C109.562 24.2666 104.141 17.2537 96.8581 12.6888C89.5753 8.12391 80.907 6.30555 72.4067 7.55966C63.9064 8.81377 56.1304 13.0583 50.4719 19.5326C44.8134 26.0069 41.6425 34.2874 41.5279 42.8903C41.5245 45.0813 41.7245 47.2681 42.1251 49.4221L42.3765 50.6654L41.1976 51.1691C39.6829 51.8162 38.2307 52.6013 36.8595 53.5143C36.6853 53.6281 36.4906 53.7061 36.2862 53.7441C36.0817 53.7818 35.8717 53.7787 35.6687 53.7348C35.4654 53.6909 35.2729 53.6071 35.1023 53.4883C34.9316 53.3692 34.7863 53.2177 34.6745 53.042C34.45 52.6913 34.3735 52.2656 34.4619 51.8585C34.5504 51.4514 34.7965 51.0958 35.1461 50.8701C36.335 50.0953 37.5742 49.4011 38.8558 48.7924C37.5785 39.1761 39.8941 29.4264 45.3574 21.4153C50.8207 13.4041 59.047 7.69618 68.4564 5.38747C77.866 3.07876 87.7954 4.33201 96.3386 8.9066C104.882 13.4812 111.436 21.0546 114.743 30.1728C120.162 28.9661 125.774 28.9224 131.21 30.0449C136.647 31.1672 141.784 33.4303 146.284 36.6849C150.783 39.9392 154.543 44.1115 157.316 48.9265C160.089 53.7417 161.812 59.0902 162.371 64.6203C162.93 70.1502 162.312 75.7361 160.559 81.0097C158.806 86.2835 155.957 91.1254 152.2 95.2169C148.443 99.3083 143.862 102.556 138.761 104.747C133.659 106.937 128.152 108.02 122.602 107.925Z" fill="#183154"/>
<path d="M180.161 209.192H215.857C216.875 209.192 217.85 209.597 218.569 210.317C219.289 211.037 219.693 212.014 219.693 213.033H176.326C176.326 212.014 176.73 211.037 177.45 210.317C178.169 209.597 179.144 209.192 180.161 209.192Z" fill="#C5D1D1"/>
<path d="M132.331 209.192H168.027C169.045 209.192 170.02 209.597 170.739 210.317C171.459 211.037 171.862 212.014 171.862 213.033H128.496C128.496 212.014 128.9 211.037 129.619 210.317C130.339 209.597 131.314 209.192 132.331 209.192Z" fill="#C5D1D1"/>
<path d="M309.648 215H72.3026C68.5508 215 64.9527 213.508 62.2996 210.851C59.6466 208.195 58.1562 204.592 58.1562 200.835V162.604C58.1562 158.847 59.6466 155.244 62.2996 152.587C64.9527 149.931 68.5508 148.438 72.3026 148.438H309.648C313.399 148.438 316.997 149.931 319.652 152.587C322.304 155.244 323.794 158.847 323.794 162.604V200.819C323.796 202.681 323.431 204.524 322.721 206.245C322.011 207.965 320.97 209.529 319.657 210.846C318.344 212.163 316.783 213.208 315.064 213.92C313.349 214.633 311.507 215 309.648 215ZM72.3026 151.555C69.3846 151.555 66.586 152.716 64.5225 154.782C62.4591 156.848 61.2999 159.65 61.2999 162.572V200.788C61.2999 203.71 62.4591 206.512 64.5225 208.578C66.586 210.644 69.3846 211.805 72.3026 211.805H309.648C312.567 211.805 315.365 210.644 317.428 208.578C319.492 206.512 320.65 203.71 320.65 200.788V162.604C320.65 159.682 319.492 156.88 317.428 154.813C315.365 152.747 312.567 151.586 309.648 151.586L72.3026 151.555Z" fill="#183154"/>
<path d="M150.189 24.2232C152.133 24.2232 153.71 22.6446 153.71 20.6975C153.71 18.7503 152.133 17.1719 150.189 17.1719C148.244 17.1719 146.668 18.7503 146.668 20.6975C146.668 22.6446 148.244 24.2232 150.189 24.2232Z" fill="#E0F0F5"/>
<path opacity="0.7" d="M128.496 180.515C128.498 182.966 127.695 185.35 126.212 187.301C124.729 189.251 122.647 190.66 120.287 191.311C117.927 191.961 115.419 191.818 113.148 190.903C110.877 189.988 108.969 188.351 107.717 186.244C109.439 187.281 111.413 187.825 113.422 187.818C116.387 187.818 119.229 186.639 121.325 184.54C123.421 182.442 124.598 179.595 124.598 176.627C124.605 174.615 124.062 172.639 123.026 170.914C124.692 171.901 126.073 173.305 127.032 174.989C127.991 176.672 128.496 178.577 128.496 180.515Z" fill="#99394C"/>
<path d="M118.687 192.87C116.163 192.87 113.695 192.121 111.596 190.716C109.497 189.312 107.861 187.316 106.895 184.981C105.929 182.646 105.677 180.076 106.169 177.597C106.662 175.117 107.877 172.84 109.662 171.053C111.447 169.265 113.721 168.048 116.197 167.555C118.673 167.062 121.239 167.315 123.571 168.283C125.903 169.25 127.897 170.888 129.299 172.99C130.702 175.091 131.45 177.562 131.45 180.09C131.45 183.48 130.106 186.73 127.712 189.127C125.318 191.524 122.072 192.87 118.687 192.87ZM118.687 170.473C116.784 170.473 114.923 171.039 113.341 172.098C111.759 173.157 110.526 174.662 109.798 176.423C109.071 178.184 108.881 180.122 109.253 181.991C109.626 183.86 110.544 185.576 111.891 186.923C113.238 188.269 114.953 189.185 116.82 189.555C118.687 189.925 120.622 189.732 122.379 189.001C124.137 188.269 125.638 187.032 126.693 185.446C127.748 183.86 128.31 181.996 128.307 180.09C128.302 177.538 127.287 175.092 125.483 173.289C123.68 171.486 121.235 170.473 118.687 170.473Z" fill="#183154"/>
</g>
<defs>
<clipPath id="clip0_2_1486">
<rect width="382" height="215" fill="white"/>
</clipPath>
</defs>
</svg>
