<svg width="24" height="25" viewBox="0 0 24 25" fill="none" xmlns="http://www.w3.org/2000/svg">
<path d="M3.91533 2.54032C4.23957 2.30663 4.67182 2.28844 5.01454 2.49407L20.0145 11.4941C20.3157 11.6748 20.5 12.0003 20.5 12.3516C20.5 12.7028 20.3157 13.0283 20.0145 13.2091L5.01454 22.2091C4.67182 22.4147 4.23957 22.3965 3.91533 22.1628C3.5911 21.9291 3.43715 21.5248 3.52386 21.1346L5.25343 13.3516L10.5 13.3516C11.0523 13.3516 11.5 12.9038 11.5 12.3516C11.5 11.7993 11.0523 11.3516 10.5 11.3516L5.25343 11.3516L3.52386 3.56849C3.43715 3.17833 3.5911 2.77402 3.91533 2.54032Z" fill="white"/>
</svg>
