<svg width="302" height="191" viewBox="0 0 302 191" fill="none" xmlns="http://www.w3.org/2000/svg">
<path fill-rule="evenodd" clip-rule="evenodd" d="M173.979 159.867C145.722 158.339 121.267 163.541 126.591 171.462C134.974 183.919 159.732 179.084 174.319 187.336C190.693 196.595 219.284 184.468 217.432 175.132C215.008 162.932 187.697 160.609 173.979 159.867Z" fill="#F0EFF4"/>
<path fill-rule="evenodd" clip-rule="evenodd" d="M116.613 0.301229C100.013 4.42159 88.8518 16.0943 95.7308 24.8037C106.556 38.4988 118.067 27.2173 130.304 34.3648C144.039 42.3838 157.638 32.2199 152.011 21.0116C144.655 6.36728 124.672 -1.69749 116.613 0.301229Z" fill="#F0EFF4"/>
<path fill-rule="evenodd" clip-rule="evenodd" d="M170.876 157.434C239.268 181.104 277.11 98.995 242.142 55.9615C176.1 -25.2868 157.213 68.9692 105.663 41.7889C47.81 11.2977 36.1331 96.1182 50.2162 124.263C88.9246 201.714 135.371 145.15 170.876 157.434Z" fill="#F0EFF4"/>
<path d="M53.2758 129.557C53.7969 128.7 54.4283 127.986 54.9432 127.048C54.9586 127.021 54.9667 126.976 54.982 126.949C56.7622 125.44 58.8902 123.687 60.5327 121.899C63.1179 119.064 65.0715 115.897 66.6965 112.695C68.7457 108.921 70.014 104.772 70.426 100.497C70.5033 98.7316 71.4078 94.6485 69.3981 93.8878C67.6494 93.7121 64.4123 96.6209 63.1613 97.7501C58.4655 102.185 54.7153 107.473 52.8401 112.991C52.2847 114.702 52.1163 116.514 52.347 118.297C52.5777 120.08 53.2018 121.79 54.1741 123.303C54.5308 123.995 55.005 124.85 55.0245 125.616C54.9864 126.068 54.8606 126.51 54.6542 126.914C54.62 126.944 54.5893 126.977 54.5628 127.014C54.5539 127.03 54.5485 127.048 54.547 127.067C54.5455 127.085 54.5478 127.104 54.5539 127.122C54.2356 127.657 53.8806 128.17 53.4916 128.656C53.3924 128.8 53.3002 128.963 53.2008 129.107C53.0229 128.468 52.8452 127.829 52.6372 127.181C51.6427 124.508 50.2266 122.025 48.8555 119.524C48.1636 118.192 47.442 116.852 46.6824 115.548C47.8123 113.986 49.0461 112.488 49.9972 110.873C51.9453 107.562 53.5884 104.144 54.7012 100.646C56.0552 95.9848 58.0108 91.1245 57.2988 86.5409C57.005 85.6132 56.5636 84.0565 55.2015 84.0599C54.9016 84.0967 54.6369 84.2866 54.3949 84.4673L52.8287 85.6603C51.4295 86.6819 50.1263 87.8112 49.1047 89.1199C45.0573 94.2559 43.0169 100.864 43.6622 106.457C44.0154 108.969 45.0297 111.3 45.5486 113.767L45.5558 113.785C45.3652 113.507 45.1745 113.227 44.9683 112.976C43.3082 110.8 41.2858 108.832 39.6257 106.656C38.7659 105.559 37.9214 104.435 37.0615 103.339L37.0543 103.32C36.8601 102.771 36.6866 102.339 36.7164 101.826C36.8114 100.952 37.5456 99.842 38.0099 98.7778C39.0621 96.37 39.4568 93.892 40.0756 91.449C40.9798 87.3659 41.6898 83.2562 41.388 79.2393C41.3383 78.2754 41.1915 77.319 40.95 76.3846C40.6692 75.0971 39.4029 75.7309 38.5457 76.5349C36.8927 78.0347 35.3798 79.6868 34.2987 81.5001C33.3773 83.1236 33.0308 84.8724 32.6918 86.576C32.214 89.1084 31.8105 91.6949 32.1868 94.1353C32.436 95.54 33.0386 96.8447 33.7693 98.0769C34.3374 99.1656 35.2153 100.046 36.0327 100.972C36.1873 101.098 36.2667 101.359 36.4446 101.475C36.378 101.71 36.3518 101.953 36.3673 102.196C36.3879 102.313 36.4085 102.43 36.4292 102.548C35.8107 101.792 35.2007 101.055 34.545 100.337C32.9517 98.7189 31.2208 97.345 29.6333 95.8086C28.1999 94.524 26.6228 93.3387 25.1515 92.0904C25.156 92.05 25.1664 92.0105 25.1824 91.9732C25.2317 91.8131 25.2914 91.6565 25.3611 91.5042C25.8226 90.6292 26.4929 89.8169 27.0141 88.9597C27.7185 87.8409 28.483 86.7399 29.068 85.5854C29.6475 84.349 30.1336 83.0711 30.5222 81.7622C31.4986 78.9041 31.6749 76.0118 31.5131 73.1927C31.4527 72.1928 31.2341 71.2566 31.1193 70.383C31.0712 69.983 30.9994 69.5861 30.9044 69.1945C30.8393 69.0325 30.7526 68.8165 30.5132 68.808C30.1991 68.8089 30.0301 69.1065 29.8702 69.2961C29.4664 69.7926 29.0555 70.2711 28.6373 70.7315C27.4829 71.9055 26.1651 72.9988 25.2186 74.2985C23.4869 76.5821 22.4095 79.1881 22.3736 81.7105C22.4432 83.6472 23.2715 85.3837 23.9198 87.1298C24.2793 88.1558 24.6686 89.1908 24.729 90.1912C24.7742 90.6956 24.7445 91.2092 24.7445 91.7317C23.9173 90.977 22.9417 90.1147 22.1768 89.1887C22.0279 89.0107 21.8977 88.8178 21.7884 88.613C21.8229 88.5305 21.832 88.4395 21.8145 88.3517C21.7886 88.1574 21.7889 87.9605 21.8155 87.7662C21.8688 86.6581 22.0196 85.5317 21.8773 84.4601C21.6967 83.4875 21.1701 82.6331 20.7641 81.7512C19.9533 80.1167 18.9802 78.5679 17.8595 77.1282C14.9013 73.6133 11.6074 70.5676 7.93032 67.6131C7.58893 67.4158 6.75261 66.2468 6.35602 66.7613C6.0805 67.7079 6.11127 68.6987 5.99298 69.6449C5.68855 74.1769 7.55182 78.3611 10.4827 81.6779C11.3968 82.6484 12.3036 83.601 13.3767 84.4455C14.4796 85.2985 15.772 85.9708 16.9814 86.6975C18.124 87.3883 19.3271 88.0339 20.6909 88.4269C20.8612 88.4829 21.0358 88.5247 21.2129 88.5517C21.9016 89.6729 22.7435 90.6926 23.714 91.5812C20.1878 90.1124 17.3021 87.3004 12.9594 86.9328C10.9868 86.7216 8.91105 86.907 6.86254 87.2905C5.29111 87.53 3.75147 87.9449 2.27246 88.5274C1.56432 88.8535 0.753201 89.0531 0.162568 89.5417C-0.524855 90.5072 1.14252 91.1342 1.90973 91.411C3.36126 91.8914 4.98257 92.0769 6.55146 92.2624C7.95584 92.4301 9.32249 92.6335 10.7658 92.7022C11.0604 94.6112 11.324 96.5744 12.513 98.2291C14.8225 101.565 18.9637 103.978 23.8402 104.173C25.3286 104.223 26.838 103.868 28.331 103.603C29.1865 103.448 30.1601 103.392 30.8917 103.516C32.4444 103.791 34.0349 104.03 35.6814 104.017C35.8113 104.023 35.9414 104.02 36.0708 104.007C37.2089 105.536 38.309 107.1 39.4921 108.611C41.183 110.733 43.0625 112.737 44.5041 115.021C44.8112 115.525 45.1183 116.029 45.3955 116.524C42.5459 114.324 40.0909 111.735 36.7862 109.969C34.5154 108.794 32.1484 107.814 29.7111 107.041C28.0267 106.568 26.2536 106.005 24.3433 106.144C21.1514 106.423 18.0922 107.881 15.1449 108.834C14.4124 109.295 15.4131 109.959 15.723 110.274C17.682 111.953 20.333 112.875 22.9397 113.751C25.531 114.654 28.0383 115.675 30.7679 116.335C32.8397 116.924 35.1126 117.035 37.3804 117.066C39.0261 117.116 40.6247 117.31 42.2388 117.477C43.4807 117.612 44.7314 117.649 45.979 117.585C46.5842 118.701 47.1595 119.807 47.7416 120.932C48.8932 123.082 49.9427 125.043 50.846 127.293C51.3045 128.521 51.6938 129.775 52.012 131.046C50.2648 130.808 49.0386 129.649 47.7291 128.607C45.8567 127.143 43.7341 125.906 41.581 124.722C39.405 123.547 37.128 122.643 34.9956 121.576C32.0466 120.043 29.0063 118.61 25.7367 117.519C24.1615 116.996 22.5 116.783 20.8439 116.892C19.602 116.868 19.7346 117.525 20.1592 118.19C22.4344 121.31 24.1199 124.856 27.3244 127.352C28.6364 128.394 30.0351 129.322 31.5054 130.125C32.5594 130.726 33.6433 131.336 34.8879 131.693C38.0412 132.559 41.5862 132.703 45.0555 132.397C46.2839 132.322 47.4789 131.968 48.6735 131.613C49.2448 131.454 49.8051 131.257 50.3508 131.024L50.4638 130.978C50.7915 131.122 51.1336 131.229 51.4843 131.3C51.686 131.344 51.8906 131.373 52.0965 131.389C52.665 133.786 52.9811 136.237 53.0397 138.701C52.5482 138.109 51.9702 137.594 51.3253 137.174C50.5022 136.719 49.589 136.45 48.6505 136.388C46.3467 136.331 44.2057 136.876 41.9621 136.774C40.0391 136.752 38.4504 136.387 36.6305 135.968C35.4742 135.701 34.2965 135.379 33.0157 135.455C30.8733 135.604 28.9883 137.113 27.6651 138.585C27.1857 139.154 26.6832 139.732 26.2631 140.318C25.91 140.941 26.5034 141.308 27.0698 141.478C28.2548 141.817 29.5798 141.787 30.8985 141.675C32.4493 141.554 33.9848 141.46 35.5267 141.448C37.3746 141.478 39.2823 141.528 41.0553 140.524C42.0958 139.981 42.9439 139.285 43.9002 138.859C45.9694 138.071 48.2112 138.821 50.2759 139.393C50.9566 139.566 51.662 139.623 52.3616 139.558C52.6091 139.543 52.8525 139.488 53.0822 139.395C53.122 141.322 53.2141 143.25 53.0513 145.196C53.0334 145.412 53.0188 145.376 52.9854 145.62L53 145.656C53.0071 145.674 53.0071 145.674 52.9918 145.701L52.999 145.719C53.0013 145.739 53.0079 145.758 53.0185 145.776C53.0291 145.793 53.0435 145.808 53.0604 145.819C53.0774 145.83 53.0967 145.837 53.1168 145.84C53.1369 145.843 53.1574 145.841 53.1768 145.835C53.4457 145.764 53.7005 145.648 53.9303 145.491C54.2969 145.49 54.2906 144.364 54.3303 144.202C54.4385 142.967 54.4631 141.724 54.4957 140.499C54.985 140.341 55.4512 140.118 55.8822 139.838C56.2343 139.577 56.5529 139.274 56.8306 138.935C56.9046 138.988 57.0625 138.925 57.1908 138.853C57.899 138.527 58.6948 138.353 59.5221 138.063C60.4624 137.727 61.4035 137.329 62.3148 136.921C64.5377 135.862 66.5258 134.478 68.3809 132.96C71.461 130.574 74.0984 127.739 75.8425 124.573C76.4126 123.445 77.0429 122.272 77.0448 121.101C77.0258 120.858 77.0528 120.534 76.7774 120.435C76.5021 120.337 76.1695 120.554 75.8768 120.609C75.354 120.775 74.8223 120.911 74.2843 121.018C72.3036 121.374 70.3074 121.758 68.4531 122.69C64.6325 124.538 60.4116 129.242 59.2393 132.722C58.6486 134.255 58.5058 135.859 57.7227 137.239C57.2525 137.991 56.6949 138.685 56.0617 139.306C55.7203 139.631 55.2226 139.893 54.5831 140.129L54.5379 140.147C54.5452 139.643 54.5452 139.121 54.5525 138.617C54.4102 135.517 54.0272 132.473 53.2758 129.557ZM32.4718 103.403C32.4357 103.391 32.3978 103.385 32.3597 103.386C32.3173 103.215 32.0274 103.08 31.955 102.9C31.3689 102.028 30.798 101.128 29.9401 100.428C28.1733 98.901 26.0949 97.7082 24.0473 96.461C22.082 95.2229 19.8962 94.2191 17.8009 93.1165L16.7983 92.5786C17.3899 92.5502 17.9589 92.5307 18.5506 92.5013C20.31 92.4429 22.0758 92.4655 23.8615 92.1457C23.9139 92.1457 23.9591 92.1275 24.0115 92.1273C24.0639 92.1272 24.1008 92.1541 24.1533 92.1541L24.1984 92.1358C25.0772 92.9534 26.0165 93.7259 26.8887 94.5254C28.1677 95.6212 29.1784 96.6367 30.3291 97.8048C31.5394 98.9909 32.6703 99.979 33.7596 101.255C34.4072 102.02 35.0169 102.82 35.5967 103.611C34.5516 103.612 33.5076 103.543 32.4718 103.403Z" fill="#E0DEE8"/>
<path d="M241.421 62.4718C241.681 62.8098 241.921 63.1665 242.18 63.5045C242.749 64.2819 243.361 65.0271 244.014 65.7365C244.927 66.6522 245.931 67.4732 247.009 68.187C248.395 69.0897 249.643 69.8904 250.287 71.3047L250.326 71.2676C250.696 70.9539 252.65 69.9875 252.544 71.064C252.481 72.4122 252.417 73.6832 252.805 74.9139C252.94 75.3549 253.129 75.7771 253.37 76.1706C253.402 75.9958 253.446 75.8235 253.501 75.6547C253.558 75.4832 253.635 75.2932 253.811 75.2422C254.319 75.0688 254.746 76.2238 254.966 76.5604C256.088 78.4562 256.388 80.6675 256.374 82.7894C256.335 84.5439 256.006 86.6923 254.306 87.572C253.76 87.8596 252.837 87.9204 252.426 88.1167C251.331 88.5761 252.559 89.4339 253.53 90.1082C253.973 90.4025 254.435 90.6655 254.915 90.895C256.114 89.8666 257.462 89.0272 258.915 88.4057C258.995 88.3649 259.081 88.3358 259.169 88.3191C259.436 87.912 259.568 87.4309 259.546 86.9444C259.558 86.2309 259.135 85.3848 258.988 84.5494C258.737 83.2661 259.666 81.9519 261.014 83.007C262.026 83.9144 261.813 85.8357 261.452 86.9215C261.343 87.2144 261.201 87.4939 261.029 87.7543C261.107 87.7188 261.205 87.7031 261.283 87.6676L262.283 87.4168C262.262 87.3195 262.242 87.2609 262.221 87.1637C261.989 86.308 261.853 85.429 261.817 84.5431C261.781 83.1331 262.395 81.7676 263.306 80.7415C264.336 79.7202 265.705 79.117 266.875 78.3131C268.591 77.2219 270.007 75.5979 272.023 74.9618C272.885 74.7251 273.774 75.0875 273.903 76.0573C274.011 76.9683 273.845 77.8688 273.6 78.7277C273.183 80.1395 272.491 81.4633 271.779 82.7287C271.76 82.7857 271.721 82.8228 271.701 82.88C271.726 82.8507 271.761 82.8314 271.799 82.8259C272.87 81.999 273.858 80.7443 274.868 79.7027C276.286 78.2338 278.021 77.0847 279.878 76.1338C280.659 75.7782 282.455 74.7284 283.287 75.2623C283.403 75.3762 283.481 75.5231 283.511 75.6829C283.541 75.8428 283.521 76.008 283.454 76.1563C282.994 77.1419 282.533 78.0503 282.269 79.0047C282.12 79.5528 282.002 80.1087 281.915 80.6698C282.384 80.4951 282.854 80.3202 283.343 80.1269C284.654 79.6179 285.944 79.0505 287.377 78.9322C288.812 78.8911 290.406 79.1264 291.595 80.0215C292.746 80.9535 293.506 82.0635 294.811 82.77C296.077 83.475 297.832 83.9481 299.35 84.3733C299.862 84.5089 300.414 84.6461 300.927 84.7817C301.262 84.8911 301.617 84.9827 301.856 85.2228C302.254 85.7021 301.745 85.8746 301.353 85.9751C300.825 86.167 300.297 86.3589 299.788 86.5707C298.615 87.0655 297.287 87.8247 296.056 88.4524C295.002 89.0291 293.928 89.663 292.733 89.9831C290.704 90.5606 288.562 90.6171 286.506 90.1475C286.19 90.0581 285.855 89.9873 285.559 89.8794C285.62 90.0168 285.72 90.1557 285.78 90.2931C286.302 91.2009 286.962 92.2103 286.836 93.2668C286.613 94.3774 285.358 94.599 284.335 94.4436C283.744 94.3436 283.21 94.0336 282.696 93.7822C281.687 93.2608 280.774 92.4151 280.058 91.7313C279.383 91.0877 278.51 90.3979 277.779 90.0802C277.463 89.9522 277.227 89.8659 277.13 89.9587C277.165 90.0379 277.213 90.1112 277.27 90.1762C277.969 91.1487 278.727 92.1429 279.055 93.3132C279.12 93.5263 279.136 93.7511 279.102 93.9711C278.762 95.2315 275.757 91.9702 275.281 91.5659C274.644 91.001 273.961 90.4904 273.239 90.0397C272.072 89.3192 270.686 88.4162 269.508 88.564C269.097 88.7219 269.356 88.9827 269.874 89.6202C270.871 90.855 272.383 92.4571 271.852 94.096C271.47 95.046 270.234 95.2877 269.306 94.9239C268.739 94.6786 268.207 94.3596 267.723 93.975L267.844 94.2112C267.926 94.5231 267.87 94.7717 267.695 94.9387C269.158 95.6898 271.091 96.3435 272.365 97.6276C272.921 98.1509 273.541 99.1203 272.781 99.6891C272.547 99.8345 272.253 99.8424 271.958 99.8502C271.773 99.8405 271.589 99.8205 271.407 99.7902C271.728 100.382 271.991 100.99 272.37 101.526C272.93 102.358 273.867 103.532 274.351 104.593C274.895 105.753 275.087 107.014 275.14 108.251C275.235 109.558 275.035 110.869 274.555 112.088C274.173 113.076 273.828 113.835 273.643 114.831C273.588 115.195 273.494 115.558 273.459 115.943C273.424 116.328 273.351 116.788 272.854 116.325C271.939 115.286 271.473 114.129 270.578 113.149C267.788 109.838 264.897 111.387 263.381 107.719C263.031 106.881 262.847 105.983 262.84 105.074C262.871 104.195 262.821 103.315 262.692 102.444C262.013 103.248 261.216 103.969 260.537 104.773L260.46 104.847C260.684 104.966 260.902 105.097 261.113 105.239C261.549 105.526 262.005 105.871 262.246 106.344C262.547 106.915 262.358 107.564 261.951 107.992C262.03 108.072 262.09 108.171 262.19 108.271C262.409 108.531 262.847 109.011 262.966 109.131C263.741 109.875 264.729 110.299 265.561 110.949C266.394 111.598 266.742 112.75 265.905 113.47C265.544 113.798 265.081 113.991 264.595 114.018C264.418 114.037 264.24 114.036 264.064 114.017C263.962 114.2 263.873 114.39 263.795 114.585C263.337 115.725 263.234 117.033 263.308 118.368C263.567 120.307 264.887 122.365 266.243 124.077C266.716 124.634 267.155 125.218 267.561 125.826C267.781 126.162 268.12 126.581 267.888 126.958C267.772 127.107 267.536 127.137 267.34 127.168C266.909 127.228 266.477 127.25 266.045 127.311C264.25 127.5 262.435 127.318 260.713 126.777C259.707 126.448 258.661 126.08 257.867 125.354C256.498 124.201 256.55 121.965 256.316 120.354C256.252 119.784 256.107 119.226 255.884 118.698C255.626 118.173 255.289 117.692 254.885 117.27C254.881 117.713 254.806 118.153 254.664 118.573C254.128 119.788 252.896 118.659 252.417 117.946C251.154 115.794 251.223 113.269 250.567 110.967C250.238 109.681 250.024 108.167 248.649 108.23C247.863 108.238 247.061 108.535 246.397 108.857C246.082 109.012 245.782 109.194 245.499 109.401C245.479 109.42 245.44 109.418 245.401 109.417C244.756 111.476 244.27 113.579 243.724 115.661C243.179 117.821 242.634 119.98 242.148 122.161C242.818 122.273 243.477 122.441 244.119 122.662C244.672 122.876 245.206 123.225 245.507 123.757C245.71 124.094 245.848 124.466 245.913 124.854C246.092 125.034 246.349 125.218 246.588 125.42C246.944 125.716 247.264 126.052 247.542 126.422C248.34 127.456 248.967 128.927 248.47 130.143L248.49 130.163C248.911 131.134 249.079 132.196 248.978 133.25C248.91 134.212 248.645 135.128 248.48 136.067C248.277 137.275 248.508 138.538 248.72 139.858C248.671 140.724 247.797 139.958 247.479 139.637C246.843 139.034 246.286 138.394 245.669 137.772C244.734 136.752 243.662 135.862 242.688 134.84C241.919 134.004 241.255 133.077 240.71 132.081C240.529 131.708 240.368 131.354 240.226 130.982C239.891 132.59 239.516 134.196 239.122 135.782C238.905 136.753 238.628 137.709 238.29 138.645C237.885 139.667 237.397 140.655 236.831 141.598C236.079 142.823 235.327 144.125 234.278 145.127C233.867 145.284 233.585 144.695 233.856 144.397C234.342 143.836 234.795 143.248 235.212 142.635C236.101 141.357 237.275 139.184 237.655 138.079C238.602 135.029 239.194 131.848 239.905 128.711C241.113 122.68 242.557 116.696 244.159 110.757C244.184 110.627 244.222 110.499 244.272 110.376C242.967 109.631 240.95 108.549 240.069 107.203C240.016 107.299 239.951 107.387 239.876 107.466C239.476 108.104 238.928 108.636 238.279 109.017C237.631 109.398 236.899 109.618 236.148 109.657C235.068 109.789 233.928 109.745 232.92 109.223C232.485 109.014 232.031 108.822 231.654 108.518C231.356 108.255 231.411 107.892 231.743 107.73C232.154 107.533 232.428 107.467 232.779 107.21C232.936 107.097 233.057 106.941 233.128 106.761C232.24 106.514 231.352 106.19 230.465 105.944C229.715 105.645 228.118 105.216 227.892 104.378C227.808 103.873 228.275 103.505 228.726 103.387C228.777 103.37 228.829 103.359 228.883 103.355C228.8 103.286 228.706 103.23 228.606 103.19C228.103 102.891 227.574 102.639 227.026 102.436C225.98 102.029 224.933 101.583 224.06 100.855C223.544 100.411 222.929 99.9045 222.783 99.2234C222.7 98.7957 223.031 98.5576 223.384 98.4556C223.317 97.8552 223.219 97.2588 223.088 96.669C222.694 94.9048 221.864 93.2675 220.675 91.9068C219.537 90.3771 217.728 88.5517 217.529 86.6333C217.482 86.0149 217.749 85.2911 218.518 85.4944C220.629 86.1748 222.682 87.0251 224.773 87.6852C225.996 88.0798 227.179 88.473 228.383 88.8861C229.271 89.2099 230.218 89.478 231.087 89.9361C232.493 90.8202 233.473 92.2666 234.001 93.7921C234.464 93.0382 235.005 92.2487 235.969 92.3439C236.758 92.5287 237.16 93.3933 237.463 94.0418C237.733 94.6463 237.9 95.2919 237.956 95.9517C238.029 97.1316 237.962 98.1318 238.289 99.2256C238.346 99.4086 238.421 99.5859 238.511 99.7551C238.792 99.3185 239.03 98.856 239.222 98.3741C239.356 98.0513 239.49 97.6898 239.623 97.3669C239.718 97.0812 239.911 96.7414 240.246 96.8122C241.232 97.0818 241.605 98.8329 241.753 99.7069C242.175 102.232 241.517 104.773 240.205 106.883C240.846 107.95 242.31 108.817 243.537 109.559L244.309 109.994C245.216 106.903 246.479 103.903 247.821 100.983C247.954 100.661 248.127 100.339 248.281 99.9979C248.162 99.9548 248.044 99.873 247.925 99.8298C247.432 99.637 246.959 99.503 246.466 99.3488C245.738 99.1748 245.02 98.9602 244.316 98.7061C242.776 98.0292 241.447 96.955 240.254 95.7899C239.797 95.3283 239.32 94.8854 238.843 94.4424C238.625 94.2217 238.287 93.9193 238.225 93.6274C238.181 93.5561 238.153 93.476 238.144 93.3927C238.16 93.1425 238.434 93.0371 238.65 93.0264C238.793 92.9985 238.937 92.9783 239.082 92.966C239.533 92.9254 240.004 92.8665 240.476 92.8461C242.952 92.826 246.007 93.6192 247.155 96.0759C247.518 96.8232 247.706 97.854 248.026 98.3287C248.266 98.6465 248.445 98.8658 248.722 98.9923C249.712 96.9954 250.909 95.108 252.293 93.361C251.98 93.1518 251.649 92.9711 251.304 92.8211C249.804 92.2614 248.192 92.1991 246.692 91.6393C245.516 91.2108 244.4 90.6357 243.369 89.9277C242.339 89.232 241.328 88.4788 240.531 87.5604C239.814 86.6836 239.586 85.6522 240.839 85.2761C241.368 85.1616 241.901 85.3173 242.433 85.4343C243.162 85.5974 243.851 85.759 244.677 85.7525C244.716 85.754 244.775 85.737 244.814 85.7386C244.676 85.6753 244.537 85.5735 244.399 85.5102C243.2 84.8204 242.043 84.0605 240.933 83.2344C240.457 82.8688 239.982 82.5031 239.545 82.1002C239.127 81.7175 238.729 81.2776 238.605 80.7324C238.501 80.246 238.714 79.8491 239.224 79.7916C239.754 79.7542 240.287 79.9485 240.779 80.064C241.508 80.2273 242.139 80.3674 242.808 80.4705C242.213 80.023 241.58 79.6125 241.005 79.1465C239.982 78.2927 239.067 77.3178 238.279 76.2433C238.059 75.9454 236.221 73.2886 237.344 73.583C238.412 74.1645 239.245 74.8142 240.349 75.1656C240.507 75.2103 240.645 75.2739 240.803 75.3182C239.773 72.8663 240.423 71.3094 240.746 68.6976C240.882 67.6563 240.916 66.6043 240.848 65.5564C240.797 64.5124 240.548 63.4227 240.733 62.3868C240.782 62.3445 240.84 62.313 240.903 62.2942C240.965 62.2755 241.031 62.27 241.096 62.278C241.16 62.286 241.223 62.3073 241.279 62.3407C241.335 62.3741 241.383 62.4187 241.421 62.4718ZM258.868 89.3498C257.956 89.7808 257.087 90.2963 256.272 90.8896C256.954 90.874 257.635 90.9457 258.298 91.103C258.83 91.22 259.205 91.331 259.775 91.3338C260.836 91.3748 261.871 90.778 263.031 90.8036C263.955 90.82 264.766 91.3338 265.48 91.9014L265.52 91.9415L264.327 90.7376C263.731 90.1357 263.213 89.5369 262.598 89.0693C262.32 88.8269 262.004 88.6604 261.706 88.4366C260.739 88.6695 259.79 88.9748 258.868 89.3498ZM248.075 102.652C247.462 104.017 246.907 105.327 246.411 106.62C246.605 106.608 246.796 106.57 246.98 106.507C247.582 106.366 248.152 106.113 248.661 105.762C249.676 105.106 250.189 103.64 251.222 102.851C251.807 102.487 252.534 102.458 253.241 102.446C253.989 102.465 254.733 102.552 255.465 102.706C256.253 102.891 257.003 103.19 257.792 103.413C257.902 103.444 258.014 103.468 258.127 103.484C258.255 102.727 258.345 101.964 258.395 101.198C258.451 100.034 258.384 98.8677 258.198 97.7175C258.112 97.1433 257.981 96.5769 257.805 96.0236C257.534 96.6244 257.198 97.1938 256.803 97.7215C256.509 98.1202 256.192 98.5009 255.853 98.8618C255.913 98.9991 255.994 99.1566 256.054 99.2947C256.253 99.6865 256.516 100.042 256.833 100.347C257.726 101.096 257.514 101.532 256.536 101.88C255.788 102.198 254.967 102.306 254.162 102.193C253.256 102.081 252.35 101.853 251.558 101.359C251.123 101.111 250.764 100.711 250.349 100.444C250.031 100.2 249.62 100.281 249.13 100.435C248.734 101.152 248.382 101.892 248.075 102.652H248.075Z" fill="#DAD8E4"/>
<path fill-rule="evenodd" clip-rule="evenodd" d="M150.256 21.4015C150.256 19.3808 143.934 17.3527 142.232 16.2978C141.391 15.7799 140.432 15.4862 139.446 15.4446C138.46 15.403 137.48 15.6149 136.599 16.0601L53.0436 57.8382C52.0836 58.3155 51.2758 59.0511 50.7109 59.9624C50.1459 60.8736 49.8463 61.9243 49.8457 62.9965V153.696C49.8432 154.685 50.0939 155.659 50.574 156.524C51.0542 157.39 51.7478 158.117 52.5888 158.639C54.2905 159.694 59.8062 163.021 61.6105 162.119C81.7073 152.07 128.606 123.684 141.778 117.098C142.741 116.618 143.55 115.879 144.115 114.963C144.68 114.048 144.978 112.993 144.976 111.917C144.976 97.4972 150.256 43.3989 150.256 21.4015Z" fill="#7C76A8"/>
<path fill-rule="evenodd" clip-rule="evenodd" d="M151.657 24.5576C151.658 23.571 151.407 22.6006 150.926 21.739C150.445 20.8774 149.752 20.1534 148.912 19.6361C148.072 19.1188 147.113 18.8255 146.127 18.7841C145.142 18.7428 144.162 18.9548 143.281 19.3999L59.7253 61.1781C58.7654 61.6555 57.9575 62.3911 57.3926 63.3023C56.8277 64.2135 56.5281 65.2642 56.5274 66.3363V157.036C56.5223 158.023 56.7705 158.995 57.2482 159.859C57.7259 160.723 58.4172 161.449 59.2561 161.97C60.0949 162.49 61.0532 162.787 62.0393 162.831C63.0255 162.876 64.0066 162.666 64.8887 162.223L148.459 120.438C149.422 119.958 150.232 119.219 150.797 118.303C151.362 117.388 151.66 116.333 151.657 115.257V24.5576Z" fill="#A9A5C6"/>
<path fill-rule="evenodd" clip-rule="evenodd" d="M151.657 30.0508C151.661 29.063 151.411 28.0907 150.931 27.2271C150.452 26.3634 149.759 25.6372 148.918 25.118C148.078 24.5987 147.118 24.3037 146.131 24.2612C145.144 24.2187 144.163 24.4301 143.281 24.8752L59.7253 66.6534C58.7638 67.1308 57.9549 67.8674 57.3898 68.78C56.8248 69.6927 56.526 70.7452 56.5274 71.8187V138.171C56.5239 139.157 56.7732 140.128 57.2514 140.991C57.7297 141.854 58.421 142.58 59.2595 143.099C60.0979 143.619 61.0555 143.915 62.041 143.96C63.0264 144.004 64.0068 143.796 64.8887 143.354L148.459 101.568C149.419 101.089 150.227 100.352 150.792 99.4396C151.357 98.5274 151.656 97.4759 151.657 96.4029V30.0508Z" fill="white"/>
<path fill-rule="evenodd" clip-rule="evenodd" d="M58.6245 114.874C63.9504 107.784 75.1981 84.2733 85.3096 79.6723C95.4212 75.0714 110.14 88.7398 119.324 87.2679C128.149 85.8558 135.269 72.3129 140.474 70.8441C144.573 69.6953 149.419 74.3981 150.736 78.4456C153.159 86.0473 165.335 108.9 155.073 116.46C138.859 128.396 70.2918 149.104 53.3592 150.064C44.0855 150.591 52.5518 128.088 53.4192 122.222C53.868 119.254 56.8295 117.277 58.6245 114.874Z" fill="#D6D5E4"/>
<path d="M138.489 60.1284C143.898 53.2008 144.86 44.9115 140.637 41.6138C136.414 38.316 128.605 41.2586 123.196 48.1862C117.786 55.1138 116.824 63.4031 121.047 66.7008C125.27 69.9986 133.079 67.056 138.489 60.1284Z" fill="#D6D5E4"/>
<path fill-rule="evenodd" clip-rule="evenodd" d="M151.656 90.6339C151.657 90.4629 151.614 90.2945 151.532 90.1444C151.45 89.9943 151.332 89.8675 151.187 89.7758C151.041 89.6846 150.873 89.6329 150.701 89.6258C150.529 89.6188 150.358 89.6565 150.204 89.7354L57.0701 136.303C56.9053 136.386 56.7671 136.514 56.6712 136.671C56.5752 136.829 56.5254 137.01 56.5274 137.195V139.529C56.5267 139.7 56.5694 139.868 56.6515 140.018C56.7336 140.168 56.8524 140.295 56.9968 140.386C57.1429 140.478 57.3104 140.53 57.4827 140.537C57.655 140.544 57.8262 140.507 57.9796 140.428L151.114 93.8601C151.278 93.7771 151.417 93.6496 151.513 93.492C151.608 93.3345 151.658 93.1532 151.656 92.9688V90.6339Z" fill="#FFFEFF"/>
<path fill-rule="evenodd" clip-rule="evenodd" d="M112.497 110.227C112.496 110.055 112.453 109.887 112.37 109.738C112.287 109.588 112.167 109.462 112.022 109.371C111.877 109.281 111.711 109.229 111.54 109.222C111.369 109.214 111.2 109.25 111.047 109.327L57.0779 136.312C56.9109 136.395 56.7706 136.522 56.6729 136.681C56.5752 136.84 56.5241 137.022 56.5255 137.209V139.543C56.5235 139.715 56.5662 139.884 56.6494 140.034C56.7327 140.184 56.8535 140.309 57.0001 140.398C57.1452 140.489 57.3111 140.54 57.4819 140.548C57.6527 140.556 57.8227 140.52 57.9754 140.443L111.944 113.459C112.11 113.375 112.25 113.247 112.347 113.088C112.445 112.93 112.497 112.748 112.497 112.562V110.227Z" fill="#77536F"/>
<path fill-rule="evenodd" clip-rule="evenodd" d="M69.6197 127.89C69.6193 127.78 69.5907 127.672 69.5366 127.576C69.4825 127.48 69.4046 127.4 69.3105 127.343C69.2164 127.285 69.1092 127.253 68.9991 127.249C68.889 127.245 68.7797 127.27 68.6818 127.32L67.3969 127.962C67.2889 128.017 67.1981 128.1 67.1346 128.203C67.0711 128.306 67.0374 128.424 67.0371 128.545V138.512C67.0366 138.622 67.0648 138.73 67.1188 138.826C67.1729 138.922 67.251 139.003 67.3454 139.06C67.4385 139.119 67.5452 139.154 67.6555 139.16C67.7658 139.166 67.8758 139.144 67.975 139.095L69.2599 138.453C69.3678 138.399 69.4586 138.315 69.5222 138.213C69.5857 138.11 69.6194 137.991 69.6197 137.87V127.89Z" fill="#77536F"/>
<path fill-rule="evenodd" clip-rule="evenodd" d="M74.5904 125.405C74.59 125.295 74.5614 125.187 74.5072 125.091C74.4531 124.995 74.3753 124.915 74.2812 124.857C74.1871 124.8 74.0798 124.768 73.9698 124.764C73.8597 124.76 73.7504 124.784 73.6525 124.835L72.3676 125.477C72.2596 125.532 72.1689 125.615 72.1053 125.718C72.0418 125.821 72.0081 125.939 72.0078 126.06V136.027C72.0073 136.137 72.0355 136.245 72.0895 136.341C72.1436 136.437 72.2217 136.518 72.3161 136.574C72.4091 136.634 72.5159 136.669 72.6262 136.675C72.7365 136.681 72.8465 136.659 72.9457 136.61L74.2306 135.968C74.3386 135.913 74.4293 135.83 74.4928 135.727C74.5564 135.625 74.5901 135.506 74.5904 135.385V125.405Z" fill="#77536F"/>
<path fill-rule="evenodd" clip-rule="evenodd" d="M224.673 89.6917C221.315 99.8655 165.836 128.169 157.537 111.824C152.852 102.591 157.932 87.2254 164.597 73.5854C172.03 58.3727 181.433 45.3016 181.433 45.3016C180.39 43.1968 180.91 37.4589 182.081 34.8777C183.856 30.9571 186.589 33.2827 188.853 31.917C191.766 30.1653 184.069 19.9551 189.98 19.9285C193.479 19.9034 196.832 37.2075 195.073 42.8287C194.446 44.8436 192.395 45.5764 192.395 45.5764C192.395 45.5764 177.026 79.1488 181.436 84.4451C186.896 91.0112 192.347 73.4688 212.53 74.5715C224.936 75.2512 226.522 84.1056 224.673 89.6917Z" fill="#FFC197"/>
<path fill-rule="evenodd" clip-rule="evenodd" d="M186.777 77.1192C189.408 78.1848 191.008 81.9851 192.057 84.3495C193.167 86.8479 193.787 89.5562 193.61 92.3087C193.345 96.4524 191.482 100.294 191.428 104.453C191.39 107.546 192.48 110.72 194.227 113.264C195.043 114.453 196.065 115.487 197.246 116.315C204.237 121.19 214.388 115.848 220.399 111.796C227.164 107.236 233.211 100.436 235.107 92.3045C238.049 79.6962 228.903 67.6694 216.944 64.4291C212.208 63.1719 207.239 63.0758 202.459 64.1488C196.775 65.4011 191.315 68.052 187.275 72.287L186.777 77.1192Z" fill="#FE9400"/>
<path fill-rule="evenodd" clip-rule="evenodd" d="M174.363 41.7119C175.929 42.4358 181.575 43.5248 181.244 45.2285C180.554 48.8686 169.134 57.9461 164.207 93.6827C163.029 102.252 172.61 109.842 179.103 108.753C187.004 107.427 194.273 99.7237 200.824 95.3907C203.151 93.8492 205.162 91.9737 207.317 90.2205C208.136 89.564 209.27 88.7769 210.118 89.814C211.195 91.1371 211.397 93.0893 211.669 94.7025C212.244 98.0698 212.728 101.453 213.12 104.853C213.924 111.8 214.212 119.648 209.615 125.48C204.544 131.93 195.652 134.005 188.039 135.563C173.932 138.452 157.053 140.006 147.27 127.233C145.417 124.829 143.995 122.117 142.888 119.303C139.786 111.399 139.067 102.516 139.714 94.1008C140.461 84.3037 143.075 74.6416 148.204 66.2135C154.179 56.415 162.54 49.2437 172.28 43.4704L174.363 41.7119Z" fill="black" fill-opacity="0.1"/>
<path fill-rule="evenodd" clip-rule="evenodd" d="M183.805 160.625C192.688 131.313 201.55 147.701 198.75 114.446C197.861 104.042 203.135 72.6866 220.065 76.27C234.581 79.3428 250.256 89.2695 252.242 94.2147C256.272 104.2 244.598 142.517 230.826 149.041C219.221 156.702 213.474 167.945 183.805 160.625Z" fill="#FE9400"/>
<path fill-rule="evenodd" clip-rule="evenodd" d="M235.275 104.777C233.605 105.856 232.289 107.47 231.11 109.044C228.038 113.09 226.304 117.619 225.204 122.544C224.112 127.406 223.566 132.657 221 137.034C219.086 140.265 216.168 142.446 213.262 144.716C205.959 150.431 202.366 151.866 194.153 155.07C189.488 156.881 177.906 167.131 177.106 172.489C176.538 176.223 183.267 174.88 185.721 174.581C192.378 173.765 198.874 171.559 205.501 170.41C214.962 168.758 225.166 168.082 233.634 163.109C244.883 156.495 251.105 142.512 252.371 129.924C252.976 123.933 252.597 117.289 248.837 112.335L235.275 104.777Z" fill="black" fill-opacity="0.1"/>
<path fill-rule="evenodd" clip-rule="evenodd" d="M250.539 91.9656C260.705 95.3026 282.983 150.744 271.857 162.344C260.732 173.943 183.772 161.563 183.772 161.563C181.67 162.611 174.258 161.102 172.97 158.483C171.467 155.433 162.413 158.717 161.775 155.643C161.41 153.85 168.411 150.255 178.337 150.394C180.452 150.424 185.626 151.607 185.626 151.607C185.626 151.607 238.505 151.133 243.807 146.714C250.362 141.24 231.452 125.026 232.515 104.841C233.17 92.4331 244.935 90.127 250.539 91.9656Z" fill="#FFC197"/>
<path fill-rule="evenodd" clip-rule="evenodd" d="M235.113 130.588C236.173 127.955 239.971 126.347 242.333 125.293C244.829 124.178 247.536 123.553 250.289 123.725C254.433 123.982 258.279 125.837 262.437 125.882C265.531 125.915 268.702 124.819 271.242 123.066C272.431 122.249 273.462 121.224 274.288 120.041C279.149 113.04 273.787 102.9 269.724 96.8969C265.15 90.1417 258.338 84.1074 250.203 82.228C237.589 79.3107 225.58 88.4806 222.363 100.446C221.116 105.184 221.03 110.154 222.112 114.932C223.376 120.613 226.037 126.068 230.28 130.1L235.113 130.588Z" fill="#FE9400"/>
<path fill-rule="evenodd" clip-rule="evenodd" d="M222.387 76.7145C222.387 76.7145 225.852 75.0851 224.482 70.0061C224.171 68.8174 220.701 73.4425 218.991 71.2718C216.661 68.2945 214.087 54.8258 219.559 50.4996C222.954 47.8194 230.26 48.4358 232.713 51.7447C235.166 55.0537 236.931 65.7407 234.277 70.3546C230.057 77.7162 241.235 84.7687 241.235 84.7687C241.235 84.7687 225.835 89.8904 219.928 96.6805C218.195 98.6747 222.387 76.7145 222.387 76.7145Z" fill="#FFC197"/>
<path fill-rule="evenodd" clip-rule="evenodd" d="M223.459 70.4912C223.961 70.348 224.436 69.9338 224.854 69.6382C225.811 68.9807 226.72 68.255 227.572 67.4668C227.893 67.1493 228.215 66.8236 228.563 66.5165C228.64 66.4364 228.853 66.2012 228.993 66.2323C229.134 66.2634 228.947 66.7076 228.92 66.765C228.693 67.3899 227.91 68.6644 227.576 69.2407C226.241 71.6139 224.12 73.7468 222.57 74.1023L223.459 70.4912Z" fill="black" fill-opacity="0.1"/>
<path fill-rule="evenodd" clip-rule="evenodd" d="M222.415 57.7588C221.214 57.7278 220.072 57.0661 219.121 56.3827C215.466 53.7595 215.543 48.9766 218.539 45.8615C220.347 43.9907 224.14 42.6546 226.015 45.1368C226.563 44.3019 227.749 43.9166 228.652 43.6732C229.366 43.4843 237.351 38.9343 242.131 47.795C244.998 53.0903 243.012 62.8769 239.728 64.1401C239.467 64.9248 238.751 65.4944 238.111 65.9646C236.349 67.2673 233.471 68.2544 231.415 67.0402C231.168 66.8918 230.941 66.7113 230.741 66.5034C229.249 64.9532 230.704 63.0788 231.128 61.4011C231.353 60.517 231.524 59.4141 230.734 58.7516C230.092 58.2328 229.479 58.5608 229.002 59.0984C228.278 59.9178 227.905 61.1829 226.715 61.4473C225.001 61.8255 223.267 60.2244 222.684 59.0798C222.563 58.8364 222.415 57.7588 222.415 57.7588Z" fill="black"/>
<path fill-rule="evenodd" clip-rule="evenodd" d="M211.94 20.1272C211.939 19.6627 211.808 19.2076 211.563 18.8128C211.319 18.418 210.969 18.0991 210.553 17.8918L181.458 3.34445C181.078 3.15458 180.655 3.06506 180.23 3.08436C179.805 3.10367 179.392 3.23116 179.03 3.45475C178.669 3.67835 178.37 3.99065 178.162 4.36204C177.955 4.73343 177.846 5.15161 177.846 5.57695V27.3647C177.845 27.8282 177.974 28.2827 178.218 28.6771C178.461 29.0715 178.81 29.3902 179.225 29.5975L208.319 44.1447C208.7 44.336 209.123 44.4268 209.549 44.4084C209.975 44.39 210.388 44.263 210.751 44.0396C211.114 43.8162 211.414 43.5037 211.622 43.1318C211.83 42.7599 211.939 42.3411 211.94 41.915V20.1272Z" fill="#A37B9A"/>
<path fill-rule="evenodd" clip-rule="evenodd" d="M209.095 21.5494C209.094 21.0848 208.964 20.6297 208.719 20.2349C208.474 19.8401 208.124 19.5213 207.708 19.3139L178.615 4.76656C178.234 4.5767 177.811 4.48718 177.386 4.50648C176.961 4.52578 176.548 4.65328 176.187 4.87687C175.825 5.10047 175.526 5.41277 175.319 5.78416C175.111 6.15555 175.002 6.57373 175.002 6.99906V28.7868C175.002 29.2503 175.13 29.7048 175.374 30.0992C175.618 30.4936 175.966 30.8123 176.381 31.0196L205.475 45.5668C205.856 45.7581 206.279 45.8489 206.705 45.8305C207.131 45.8121 207.545 45.6852 207.908 45.4617C208.27 45.2383 208.57 44.9258 208.778 44.5539C208.986 44.1821 209.096 43.7632 209.096 43.3371L209.095 21.5494Z" fill="#77536F"/>
<path fill-rule="evenodd" clip-rule="evenodd" d="M185.165 21.2294C184.988 21.2287 184.814 21.2801 184.665 21.3771C184.517 21.4742 184.4 21.6127 184.33 21.7755C184.264 21.9405 184.247 22.1211 184.281 22.2956C184.315 22.4701 184.399 22.6309 184.523 22.7586C187.205 25.4359 192.746 30.9687 195.428 33.659C195.554 33.7848 195.714 33.8704 195.888 33.905C196.063 33.9396 196.244 33.9216 196.408 33.8534C196.568 33.7806 196.705 33.6638 196.801 33.5165C196.898 33.3692 196.951 33.1975 196.954 33.0214V22.1256C196.954 22.0075 196.931 21.8905 196.885 21.7814C196.84 21.6722 196.774 21.5731 196.691 21.4895C196.607 21.406 196.508 21.3397 196.399 21.2946C196.29 21.2494 196.173 21.2261 196.055 21.2262C193.886 21.2217 188.281 21.2328 185.165 21.2294Z" fill="#E9DFE6"/>
<path fill-rule="evenodd" clip-rule="evenodd" d="M190.973 40.7348C191.871 39.7162 197.263 37.2616 198.678 37.0645C200.935 36.7331 203.059 38.2114 202.277 40.3578C201.965 41.1835 195.137 43.0806 193.258 43.148C192.489 43.172 190.614 41.1385 190.973 40.7348Z" fill="#FFC197"/>
<path fill-rule="evenodd" clip-rule="evenodd" d="M216.384 66.8523C216.527 66.4956 216.765 66.1852 217.074 65.9556C217.792 65.3493 218.74 65.0004 219.559 65.674C220.334 66.3234 220.536 67.8029 221.929 67.1551C222.102 67.0744 222.262 66.9673 222.403 66.8377C223.667 65.6162 224.357 63.5668 224.644 61.8702C224.759 61.1619 224.745 60.4293 224.888 59.7267C224.931 59.52 225.046 59.112 225.334 59.2211C225.808 59.3978 226.21 59.8187 226.684 60.0226C226.828 60.0831 227.129 60.1154 227.201 60.2756C227.388 60.7295 226.828 61.8414 226.741 62.3097C226.512 63.5609 226.339 64.828 226.152 66.0864C226.066 66.6394 226.095 67.2414 225.923 67.7742C225.765 68.2397 225.406 68.6276 225.161 69.0412C224.816 69.5886 224.572 70.1919 224.113 70.6588C223.035 71.7606 220.995 72.5507 219.459 72.5852C216.701 72.647 215.321 69.0269 216.111 66.7616L216.384 66.8523Z" fill="black"/>
</svg>
