<svg width="39" height="39" viewBox="0 0 39 39" fill="none" xmlns="http://www.w3.org/2000/svg">
<path d="M32.6003 30.3834C34.3506 28.2775 35.568 25.7811 36.1494 23.1052C36.7308 20.4294 36.6591 17.6529 35.9405 15.0106C35.222 12.3683 33.8775 9.93791 32.021 7.92508C30.1645 5.91225 27.8505 4.37617 25.2748 3.44679C22.699 2.51741 19.9373 2.22206 17.2233 2.58574C14.5093 2.94941 11.9228 3.96141 9.68262 5.53612C7.44244 7.11083 5.61447 9.20192 4.35337 11.6325C3.09226 14.0631 2.43511 16.7617 2.43751 19.4999C2.43843 23.4806 3.8412 27.3338 6.39966 30.3834L6.37529 30.4041C6.4606 30.5065 6.5581 30.5942 6.64585 30.6954C6.75554 30.8209 6.87376 30.9391 6.9871 31.061C7.32835 31.4315 7.67935 31.7874 8.04741 32.1213C8.15954 32.2237 8.27532 32.3188 8.38866 32.4163C8.77866 32.7526 9.17963 33.0719 9.59522 33.3693C9.64885 33.4059 9.6976 33.4534 9.75122 33.4912V33.4766C12.6057 35.4853 16.0109 36.5633 19.5012 36.5633C22.9916 36.5633 26.3968 35.4853 29.2512 33.4766V33.4912C29.3048 33.4534 29.3524 33.4059 29.4072 33.3693C29.8216 33.0707 30.2238 32.7526 30.6138 32.4163C30.7271 32.3188 30.8429 32.2225 30.955 32.1213C31.3231 31.7862 31.6741 31.4315 32.0153 31.061C32.1287 30.9391 32.2457 30.8209 32.3566 30.6954C32.4431 30.5942 32.5418 30.5065 32.6272 30.4029L32.6003 30.3834ZM19.5 9.74994C20.5847 9.74994 21.6451 10.0716 22.547 10.6742C23.4489 11.2769 24.1518 12.1334 24.5669 13.1355C24.982 14.1377 25.0906 15.2404 24.879 16.3043C24.6674 17.3681 24.145 18.3454 23.378 19.1124C22.611 19.8794 21.6338 20.4017 20.57 20.6133C19.5061 20.8249 18.4034 20.7163 17.4012 20.3012C16.3991 19.8861 15.5425 19.1832 14.9399 18.2813C14.3373 17.3794 14.0156 16.319 14.0156 15.2343C14.0156 13.7798 14.5934 12.3848 15.622 11.3563C16.6505 10.3278 18.0455 9.74994 19.5 9.74994V9.74994ZM9.75854 30.3834C9.77968 28.7831 10.43 27.2555 11.5688 26.1311C12.7076 25.0066 14.2434 24.3758 15.8438 24.3749H23.1563C24.7567 24.3758 26.2924 25.0066 27.4312 26.1311C28.57 27.2555 29.2203 28.7831 29.2415 30.3834C26.5686 32.792 23.0981 34.125 19.5 34.125C15.9019 34.125 12.4314 32.792 9.75854 30.3834V30.3834Z" fill="#243A73"/>
</svg>
